<svg width="800" height="800" viewBox="0 0 800 800" fill="none" xmlns="http://www.w3.org/2000/svg">
<g clip-path="url(#clip0_1910_1456)">
<path d="M800 0H0V800H800V0Z" fill="#EBE9DF"/>
<path fill-rule="evenodd" clip-rule="evenodd" d="M402.918 312.321C403.78 320.685 397.452 321.406 397.452 321.406C397.452 306.193 381.201 291.772 381.201 291.772C384.005 305.4 371.996 314.052 371.996 314.052C380.625 304.534 373.722 296.892 378.252 283.841C382.783 270.863 402.989 306.553 402.989 306.553C503.736 332.51 504.814 402.087 502.873 436.912C500.931 471.809 481.084 496.323 481.084 496.323C481.084 496.323 499.996 438.714 486.909 419.463C490.72 477.072 429.884 515.574 418.953 519.612C469.219 462.868 477.345 420.257 478.999 405.043C480.652 389.902 485.758 335.97 402.989 312.105L402.918 312.321Z" fill="#C2BEB4"/>
<path fill-rule="evenodd" clip-rule="evenodd" d="M345.175 412.616C358.622 413.409 380.554 426.676 405.076 394.014C416.078 449.676 317.13 486.231 317.13 486.231C450.02 516.514 471.377 431.795 439.377 385.29C445.058 431.867 402.559 472.46 360.635 479.67C360.635 479.67 423.341 445.494 410.541 372.744C394.505 402.306 369.696 421.34 338.847 396.682C338.847 396.682 335.682 396.393 338.847 400.864C321.948 401.945 315.548 425.522 299.296 408.578C299.296 408.578 299.655 416.798 309.723 417.519C319.79 418.24 331.656 411.823 345.103 412.616H345.175Z" fill="#C2BEB4"/>
<path fill-rule="evenodd" clip-rule="evenodd" d="M390.621 325.733C390.621 325.733 365.884 324.507 361.785 341.667C361.785 341.667 360.563 346.354 346.756 353.203C346.756 353.203 315.044 375.627 302.315 380.746C305.408 376.203 316.266 376.203 344.599 349.959C344.599 349.959 370.774 321.046 380.77 319.748C390.693 318.45 390.693 325.805 390.693 325.805L390.621 325.733Z" fill="#C2BEB4"/>
<path fill-rule="evenodd" clip-rule="evenodd" d="M359.843 360.413C359.268 358.611 365.883 351.617 368.328 350.247C370.773 348.877 379.187 345.777 379.834 347.003C380.409 348.228 375.232 355.655 372.068 356.808C368.904 357.962 360.418 362.216 359.843 360.413Z" fill="#C2BEB4"/>
<path fill-rule="evenodd" clip-rule="evenodd" d="M299.511 399.346C297.785 394.299 308.212 381.537 299.511 386.945C290.81 392.352 301.237 404.393 299.511 399.346Z" fill="#C2BEB4"/>
</g>
<defs>
<clipPath id="clip0_1910_1456">
<rect width="800" height="800" fill="white"/>
</clipPath>
</defs>
</svg>
