<svg width="48" height="48" viewBox="0 0 48 48" fill="none" xmlns="http://www.w3.org/2000/svg">
<path d="M26.7878 10.6567L26.7871 10.6574L25.0172 12.2886L24.0007 13.2255L22.9841 12.2886L21.2142 10.6574L21.2124 10.6557C17.1873 6.93372 10.667 6.38376 6.37581 9.65432L26.7878 10.6567ZM26.7878 10.6567C30.823 6.93286 37.3352 6.38418 41.6258 9.65452C46.5298 13.399 46.7679 20.0319 42.3981 24.0653L42.3978 24.0655M26.7878 10.6567L42.3978 24.0655M42.3978 24.0655L25.0137 40.1203C25.0136 40.1204 25.0136 40.1204 25.0135 40.1205C24.4651 40.6265 23.5274 40.6265 22.9789 40.1206C22.9788 40.1205 22.9787 40.1204 22.9786 40.1203L5.59517 24.0662M42.3978 24.0655L5.59517 24.0662M5.59517 24.0662C1.23327 20.0329 1.47128 13.3991 6.37554 9.65452L5.59517 24.0662Z" fill="white" stroke="black" stroke-width="3"/>
</svg>
