<svg width="28" height="31" viewBox="0 0 28 31" fill="none" xmlns="http://www.w3.org/2000/svg">
<path d="M0.707519 2.4778C0.707519 1.8655 0.858785 1.40592 1.09442 1.09858L15.37 15.4311V15.4997V15.5684L1.0939 29.9003C0.858539 29.5931 0.707519 29.1345 0.707519 28.5217V2.4778Z" fill="white" stroke="#4D7A4C" stroke-width="0.5"/>
<path d="M20.5063 20.2253L26.1889 16.9841L20.5063 20.2253ZM20.5063 20.2253L15.8696 15.5682V15.4995V15.4309L20.5063 10.7761L26.189 14.0174C26.9627 14.4588 27.292 15.0056 27.292 15.5003C27.292 15.995 26.9627 16.542 26.1891 16.984L20.5063 20.2253Z" fill="white" stroke="#4D7A4C" stroke-width="0.5"/>
<path d="M1.36511 30.1642L15.6187 15.8538L20.1658 20.4185L3.31435 30.0317C2.48942 30.5014 1.8115 30.4813 1.36511 30.1642Z" fill="white" stroke="#4D7A4C" stroke-width="0.5"/>
<path d="M3.31415 0.968626L3.31417 0.968633L20.1658 10.5808L15.6199 15.1467L1.36509 0.836264C1.81157 0.518874 2.4895 0.498178 3.31415 0.968626Z" fill="white" stroke="#4D7A4C" stroke-width="0.5"/>
</svg>
