<svg width="31" height="35" viewBox="0 0 31 35" fill="none" xmlns="http://www.w3.org/2000/svg">
<g filter="url(#filter0_ii_64_30158)">
<path d="M1.08939 1.22909C0.710973 1.63117 0.487304 2.25518 0.487304 3.06327V31.9349C0.487304 32.7443 0.710973 33.367 1.08939 33.7691L1.18561 33.8631L17.2961 17.6897V17.4991V17.3085L1.18561 1.13379L1.08939 1.22909Z" fill="url(#paint0_linear_64_30158)"/>
<path d="M22.6652 23.0826L17.2959 17.6898V17.4992V17.3086L22.6665 11.917L22.7874 11.9862L29.1502 15.6154C30.9669 16.6519 30.9669 18.3477 29.1502 19.3856L22.7874 23.0147L22.6652 23.0826Z" fill="url(#paint1_linear_64_30158)"/>
<g filter="url(#filter1_i_64_30158)">
<path d="M22.7876 23.0133L17.2948 17.499L1.08936 33.769C1.68754 34.4061 2.67713 34.4844 3.79156 33.85L22.7876 23.0133Z" fill="url(#paint2_linear_64_30158)"/>
</g>
<path d="M22.7876 11.985L3.79156 1.14967C2.67713 0.513911 1.68754 0.593544 1.08936 1.23061L17.2961 17.5006L22.7876 11.985Z" fill="url(#paint3_linear_64_30158)"/>
</g>
<defs>
<filter id="filter0_ii_64_30158" x="0.487305" y="0.710938" width="30.0254" height="33.5771" filterUnits="userSpaceOnUse" color-interpolation-filters="sRGB">
<feFlood flood-opacity="0" result="BackgroundImageFix"/>
<feBlend mode="normal" in="SourceGraphic" in2="BackgroundImageFix" result="shape"/>
<feColorMatrix in="SourceAlpha" type="matrix" values="0 0 0 0 0 0 0 0 0 0 0 0 0 0 0 0 0 0 127 0" result="hardAlpha"/>
<feOffset dy="-0.795"/>
<feComposite in2="hardAlpha" operator="arithmetic" k2="-1" k3="1"/>
<feColorMatrix type="matrix" values="0 0 0 0 0 0 0 0 0 0 0 0 0 0 0 0 0 0 0.12 0"/>
<feBlend mode="normal" in2="shape" result="effect1_innerShadow_64_30158"/>
<feColorMatrix in="SourceAlpha" type="matrix" values="0 0 0 0 0 0 0 0 0 0 0 0 0 0 0 0 0 0 127 0" result="hardAlpha"/>
<feOffset dy="0.795"/>
<feComposite in2="hardAlpha" operator="arithmetic" k2="-1" k3="1"/>
<feColorMatrix type="matrix" values="0 0 0 0 1 0 0 0 0 1 0 0 0 0 1 0 0 0 0.25 0"/>
<feBlend mode="normal" in2="effect1_innerShadow_64_30158" result="effect2_innerShadow_64_30158"/>
</filter>
<filter id="filter1_i_64_30158" x="1.08936" y="17.499" width="21.6982" height="16.7891" filterUnits="userSpaceOnUse" color-interpolation-filters="sRGB">
<feFlood flood-opacity="0" result="BackgroundImageFix"/>
<feBlend mode="normal" in="SourceGraphic" in2="BackgroundImageFix" result="shape"/>
<feColorMatrix in="SourceAlpha" type="matrix" values="0 0 0 0 0 0 0 0 0 0 0 0 0 0 0 0 0 0 127 0" result="hardAlpha"/>
<feOffset dy="-0.795"/>
<feComposite in2="hardAlpha" operator="arithmetic" k2="-1" k3="1"/>
<feColorMatrix type="matrix" values="0 0 0 0 0 0 0 0 0 0 0 0 0 0 0 0 0 0 0.08 0"/>
<feBlend mode="normal" in2="shape" result="effect1_innerShadow_64_30158"/>
</filter>
<linearGradient id="paint0_linear_64_30158" x1="15.868" y1="2.75779" x2="-6.04009" y2="24.5808" gradientUnits="userSpaceOnUse">
<stop stop-color="#00A0FF"/>
<stop offset="0.0066" stop-color="#00A1FF"/>
<stop offset="0.2601" stop-color="#00BEFF"/>
<stop offset="0.5122" stop-color="#00D2FF"/>
<stop offset="0.7604" stop-color="#00DFFF"/>
<stop offset="1" stop-color="#00E3FF"/>
</linearGradient>
<linearGradient id="paint1_linear_64_30158" x1="31.515" y1="17.4992" x2="0.0509182" y2="17.4992" gradientUnits="userSpaceOnUse">
<stop stop-color="#FFE000"/>
<stop offset="0.4087" stop-color="#FFBD00"/>
<stop offset="0.7754" stop-color="#FFA500"/>
<stop offset="1" stop-color="#FF9C00"/>
</linearGradient>
<linearGradient id="paint2_linear_64_30158" x1="19.8047" y1="20.4936" x2="-9.9055" y2="50.0883" gradientUnits="userSpaceOnUse">
<stop stop-color="#FF3A44"/>
<stop offset="1" stop-color="#C31162"/>
</linearGradient>
<linearGradient id="paint3_linear_64_30158" x1="-2.99205" y1="-8.38048" x2="10.2744" y2="4.83436" gradientUnits="userSpaceOnUse">
<stop stop-color="#32A071"/>
<stop offset="0.0685" stop-color="#2DA771"/>
<stop offset="0.4762" stop-color="#15CF74"/>
<stop offset="0.8009" stop-color="#06E775"/>
<stop offset="1" stop-color="#00F076"/>
</linearGradient>
</defs>
</svg>
