<svg width="50" height="18" viewBox="0 0 50 18" fill="none" xmlns="http://www.w3.org/2000/svg">
<path d="M47.3884 8.70213C47.4045 7.43893 48.0715 6.24367 49.1297 5.58204C48.4621 4.61242 47.344 3.99765 46.1806 3.96064C44.9398 3.82819 43.7369 4.71572 43.1046 4.71572C42.4601 4.71572 41.4866 3.97379 40.4383 3.99572C39.0718 4.04062 37.798 4.83069 37.1332 6.04559C35.7041 8.56178 36.7701 12.2597 38.139 14.2936C38.8239 15.2896 39.6243 16.4021 40.6717 16.3626C41.6966 16.3194 42.0794 15.698 43.3166 15.698C44.5422 15.698 44.9014 16.3626 45.97 16.3375C47.0697 16.3194 47.7627 15.3372 48.4235 14.3318C48.9156 13.6221 49.2943 12.8378 49.5455 12.0079C48.2531 11.452 47.39 10.1292 47.3884 8.70213Z" fill="#090909"/>
<path d="M45.37 2.62305C45.9696 1.89097 46.2651 0.950015 46.1935 0C45.2774 0.0978549 44.4312 0.543137 43.8234 1.24712C43.2291 1.93495 42.9199 2.85936 42.9783 3.77306C43.8948 3.78266 44.7957 3.34944 45.37 2.62305Z" fill="#090909"/>
<g filter="url(#filter0_ii_23_8834)">
<path d="M0.720867 1.55484C0.553509 1.73267 0.45459 2.00864 0.45459 2.36603V15.1348C0.45459 15.4928 0.553509 15.7682 0.720867 15.946L0.763424 15.9876L7.88847 8.83472V8.75042V8.66613L0.763424 1.5127L0.720867 1.55484Z" fill="url(#paint0_linear_23_8834)"/>
<path d="M10.2628 11.2203L7.88818 8.83529V8.751V8.6667L10.2634 6.28223L10.3169 6.31283L13.1309 7.91787C13.9343 8.37629 13.9343 9.12628 13.1309 9.58528L10.3169 11.1903L10.2628 11.2203Z" fill="url(#paint1_linear_23_8834)"/>
<g filter="url(#filter1_i_23_8834)">
<path d="M10.3172 11.1897L7.88798 8.75098L0.720948 15.9466C0.985499 16.2283 1.42316 16.2629 1.91603 15.9824L10.3172 11.1897Z" fill="url(#paint2_linear_23_8834)"/>
</g>
<path d="M10.3172 6.31226L1.91603 1.52021C1.42316 1.23903 0.985499 1.27425 0.720948 1.556L7.88855 8.75158L10.3172 6.31226Z" fill="url(#paint3_linear_23_8834)"/>
</g>
<line x1="25.5" y1="2.18556e-08" x2="25.5" y2="18" stroke="black"/>
<defs>
<filter id="filter0_ii_23_8834" x="0.45459" y="1.32617" width="13.2788" height="14.8496" filterUnits="userSpaceOnUse" color-interpolation-filters="sRGB">
<feFlood flood-opacity="0" result="BackgroundImageFix"/>
<feBlend mode="normal" in="SourceGraphic" in2="BackgroundImageFix" result="shape"/>
<feColorMatrix in="SourceAlpha" type="matrix" values="0 0 0 0 0 0 0 0 0 0 0 0 0 0 0 0 0 0 127 0" result="hardAlpha"/>
<feOffset dy="-0.795"/>
<feComposite in2="hardAlpha" operator="arithmetic" k2="-1" k3="1"/>
<feColorMatrix type="matrix" values="0 0 0 0 0 0 0 0 0 0 0 0 0 0 0 0 0 0 0.12 0"/>
<feBlend mode="normal" in2="shape" result="effect1_innerShadow_23_8834"/>
<feColorMatrix in="SourceAlpha" type="matrix" values="0 0 0 0 0 0 0 0 0 0 0 0 0 0 0 0 0 0 127 0" result="hardAlpha"/>
<feOffset dy="0.795"/>
<feComposite in2="hardAlpha" operator="arithmetic" k2="-1" k3="1"/>
<feColorMatrix type="matrix" values="0 0 0 0 1 0 0 0 0 1 0 0 0 0 1 0 0 0 0.25 0"/>
<feBlend mode="normal" in2="effect1_innerShadow_23_8834" result="effect2_innerShadow_23_8834"/>
</filter>
<filter id="filter1_i_23_8834" x="0.720947" y="8.75098" width="9.59619" height="7.4248" filterUnits="userSpaceOnUse" color-interpolation-filters="sRGB">
<feFlood flood-opacity="0" result="BackgroundImageFix"/>
<feBlend mode="normal" in="SourceGraphic" in2="BackgroundImageFix" result="shape"/>
<feColorMatrix in="SourceAlpha" type="matrix" values="0 0 0 0 0 0 0 0 0 0 0 0 0 0 0 0 0 0 127 0" result="hardAlpha"/>
<feOffset dy="-0.795"/>
<feComposite in2="hardAlpha" operator="arithmetic" k2="-1" k3="1"/>
<feColorMatrix type="matrix" values="0 0 0 0 0 0 0 0 0 0 0 0 0 0 0 0 0 0 0.08 0"/>
<feBlend mode="normal" in2="shape" result="effect1_innerShadow_23_8834"/>
</filter>
<linearGradient id="paint0_linear_23_8834" x1="7.25688" y1="2.23093" x2="-2.43222" y2="11.8824" gradientUnits="userSpaceOnUse">
<stop stop-color="#00A0FF"/>
<stop offset="0.0066" stop-color="#00A1FF"/>
<stop offset="0.2601" stop-color="#00BEFF"/>
<stop offset="0.5122" stop-color="#00D2FF"/>
<stop offset="0.7604" stop-color="#00DFFF"/>
<stop offset="1" stop-color="#00E3FF"/>
</linearGradient>
<linearGradient id="paint1_linear_23_8834" x1="14.1767" y1="8.751" x2="0.261411" y2="8.751" gradientUnits="userSpaceOnUse">
<stop stop-color="#FFE000"/>
<stop offset="0.4087" stop-color="#FFBD00"/>
<stop offset="0.7754" stop-color="#FFA500"/>
<stop offset="1" stop-color="#FF9C00"/>
</linearGradient>
<linearGradient id="paint2_linear_23_8834" x1="8.998" y1="10.0754" x2="-4.14164" y2="23.1639" gradientUnits="userSpaceOnUse">
<stop stop-color="#FF3A44"/>
<stop offset="1" stop-color="#C31162"/>
</linearGradient>
<linearGradient id="paint3_linear_23_8834" x1="-1.0841" y1="-2.6946" x2="4.78312" y2="3.1498" gradientUnits="userSpaceOnUse">
<stop stop-color="#32A071"/>
<stop offset="0.0685" stop-color="#2DA771"/>
<stop offset="0.4762" stop-color="#15CF74"/>
<stop offset="0.8009" stop-color="#06E775"/>
<stop offset="1" stop-color="#00F076"/>
</linearGradient>
</defs>
</svg>
