<svg width="170" height="27" viewBox="0 0 170 27" fill="none" xmlns="http://www.w3.org/2000/svg">
<path d="M6.88198 23.4906L7.37884 23.5465C7.63129 21.3046 8.15348 19.107 8.90008 16.9747L9.13301 16.3095H8.42817C8.41976 16.3095 8.40701 16.3088 8.38183 16.3052C6.16604 15.9045 3.99449 15.2888 1.93103 14.4027L1.93045 14.4024L1.90316 14.3908C1.58274 14.2537 1.25756 14.1146 0.986535 13.9313C0.709261 13.7437 0.558907 13.5557 0.512963 13.3552L0.512857 13.3547C0.478496 13.2053 0.512359 13.0539 0.634017 12.87C0.761898 12.6766 0.9588 12.4916 1.17859 12.3065C3.35356 10.4814 6.44572 9.60868 9.34811 9.79714L9.80594 9.82687L9.87484 9.37328C9.98062 8.67692 10.0869 7.98053 10.1933 7.28392C10.2997 6.58737 10.406 5.8906 10.5119 5.19381C10.5295 5.07859 10.5465 4.96493 10.5632 4.85285C10.7715 3.45772 10.9432 2.30798 11.879 1.46505L11.879 1.46506L11.8814 1.46284C11.9983 1.35611 12.4285 1.0092 12.8644 0.754992C13.0859 0.625789 13.2733 0.541848 13.4038 0.511076C13.409 0.509843 13.4139 0.508731 13.4186 0.507728C14.3882 1.82336 15.2022 3.23434 15.8119 4.74452C16.1005 5.46339 16.3467 6.19624 16.5464 6.94314L16.547 6.94518C16.6561 7.34657 16.7505 7.74983 16.8302 8.15713C16.8399 8.20712 16.8474 8.28223 16.8578 8.38645C16.8657 8.46543 16.8752 8.56114 16.8886 8.6753C16.9021 8.79001 16.9194 8.9159 16.9431 9.03039C16.9632 9.12724 17.0001 9.2821 17.0803 9.41072L17.0816 9.41279C17.2824 9.73115 17.6434 9.83045 17.8851 9.86967C18.155 9.91348 18.4616 9.91032 18.7439 9.89317C19.0307 9.87575 19.3226 9.84164 19.567 9.81286C19.826 9.78235 20.0086 9.7611 20.1185 9.75898L20.1197 9.75895C20.9126 9.74184 21.7089 9.75465 22.5068 9.79115C24.099 9.86399 25.6807 10.0536 27.2507 10.3451C25.7185 12.2996 23.6491 13.8429 21.3539 14.817L20.7421 15.0766L21.1612 15.5925C22.4702 17.2039 23.6453 18.9162 24.6513 20.7315C24.6847 20.7918 24.718 20.8514 24.751 20.9104C24.9328 21.2355 25.1048 21.5433 25.226 21.8632C25.3658 22.2322 25.4138 22.5603 25.336 22.8682C25.2004 23.4048 24.6648 23.8565 24.0366 24.2208L24.0361 24.2212C23.2266 24.6921 22.573 24.8358 21.8004 24.5171L21.7994 24.5168C20.9748 24.1786 20.174 23.679 19.4018 23.1516C18.1102 22.2688 16.9655 21.2079 15.9702 20.0033L15.5643 19.512L15.1837 20.0231C14.4791 20.9694 13.716 21.8717 12.8925 22.7154C11.5495 24.0912 10.0486 25.5928 8.3872 26.2944C8.05869 26.4329 7.76095 26.5142 7.54924 26.498C7.4557 26.4909 7.40375 26.4663 7.37109 26.44C7.33958 26.4146 7.28607 26.3556 7.2453 26.2073L7.24518 26.2069C7.1511 25.866 7.14925 25.445 7.19482 24.9668C7.21724 24.7314 7.24985 24.4931 7.28403 24.2529C7.28858 24.2209 7.29316 24.1889 7.29776 24.1567C7.32715 23.9512 7.35696 23.7427 7.3789 23.546L6.88198 23.4906ZM6.88198 23.4906C6.86097 23.679 6.8324 23.8788 6.80291 24.0851C6.69598 24.8331 6.577 25.6653 6.7632 26.3399L8.3065 16.7669L8.42817 16.8095V17.3095C8.36628 17.3095 8.3104 17.3045 8.26138 17.298C7.592 19.3098 7.11967 21.3798 6.88198 23.4906ZM13.4829 0.499381C13.4826 0.499682 13.479 0.49991 13.4728 0.499162C13.4801 0.498706 13.4831 0.49908 13.4829 0.499381Z" fill="#F8CA29" stroke="black"/>
<path d="M43.882 23.4906L44.3788 23.5465C44.6313 21.3046 45.1535 19.107 45.9001 16.9747L46.133 16.3095H45.4282C45.4198 16.3095 45.407 16.3088 45.3818 16.3052C43.166 15.9045 40.9945 15.2888 38.931 14.4027L38.9304 14.4024L38.9032 14.3908C38.5827 14.2537 38.2576 14.1146 37.9865 13.9313C37.7093 13.7437 37.5589 13.5557 37.513 13.3552L37.5129 13.3547C37.4785 13.2053 37.5124 13.0539 37.634 12.87C37.7619 12.6766 37.9588 12.4916 38.1786 12.3065C40.3536 10.4814 43.4457 9.60868 46.3481 9.79714L46.8059 9.82687L46.8748 9.37328C46.9806 8.67692 47.0869 7.98053 47.1933 7.28392C47.2997 6.58737 47.406 5.8906 47.5119 5.19381C47.5295 5.07859 47.5465 4.96493 47.5632 4.85285C47.7715 3.45772 47.9432 2.30798 48.879 1.46505L48.879 1.46506L48.8814 1.46284C48.9983 1.35611 49.4285 1.0092 49.8644 0.754992C50.0859 0.625789 50.2733 0.541848 50.4038 0.511076C50.409 0.509843 50.4139 0.508731 50.4186 0.507728C51.3882 1.82336 52.2022 3.23434 52.8119 4.74452C53.1005 5.46339 53.3467 6.19624 53.5464 6.94314L53.547 6.94518C53.6561 7.34657 53.7505 7.74983 53.8302 8.15713C53.8399 8.20712 53.8474 8.28223 53.8578 8.38645C53.8657 8.46543 53.8752 8.56114 53.8886 8.6753C53.9021 8.79001 53.9194 8.9159 53.9431 9.03039C53.9632 9.12724 54.0001 9.2821 54.0803 9.41072L54.0816 9.41279C54.2824 9.73115 54.6434 9.83045 54.8851 9.86967C55.155 9.91348 55.4616 9.91032 55.7439 9.89317C56.0307 9.87575 56.3226 9.84164 56.567 9.81286C56.826 9.78235 57.0086 9.7611 57.1185 9.75898L57.1197 9.75895C57.9126 9.74184 58.7089 9.75465 59.5068 9.79115C61.099 9.86399 62.6807 10.0536 64.2507 10.3451C62.7185 12.2996 60.6491 13.8429 58.3539 14.817L57.7421 15.0766L58.1612 15.5925C59.4702 17.2039 60.6453 18.9162 61.6513 20.7315C61.6847 20.7918 61.718 20.8514 61.751 20.9104C61.9328 21.2355 62.1048 21.5433 62.226 21.8632C62.3658 22.2322 62.4138 22.5603 62.336 22.8682C62.2004 23.4048 61.6648 23.8565 61.0366 24.2208L61.0361 24.2212C60.2266 24.6921 59.573 24.8358 58.8004 24.5171L58.7994 24.5168C57.9748 24.1786 57.174 23.679 56.4018 23.1516C55.1102 22.2688 53.9655 21.2079 52.9702 20.0033L52.5643 19.512L52.1837 20.0231C51.4791 20.9694 50.716 21.8717 49.8925 22.7154C48.5495 24.0912 47.0486 25.5928 45.3872 26.2944C45.0587 26.4329 44.761 26.5142 44.5492 26.498C44.4557 26.4909 44.4038 26.4663 44.3711 26.44C44.3396 26.4146 44.2861 26.3556 44.2453 26.2073L44.2452 26.2069C44.1511 25.866 44.1493 25.445 44.1948 24.9668C44.2172 24.7314 44.2499 24.4931 44.284 24.2529C44.2886 24.2209 44.2932 24.1889 44.2978 24.1567C44.3272 23.9512 44.357 23.7427 44.3789 23.546L43.882 23.4906ZM43.882 23.4906C43.861 23.679 43.8324 23.8788 43.8029 24.0851C43.696 24.8331 43.577 25.6653 43.7632 26.3399L45.3065 16.7669L45.4282 16.8095V17.3095C45.3663 17.3095 45.3104 17.3045 45.2614 17.298C44.592 19.3098 44.1197 21.3798 43.882 23.4906ZM50.4829 0.499381C50.4826 0.499682 50.479 0.49991 50.4728 0.499162C50.4801 0.498706 50.4831 0.49908 50.4829 0.499381Z" fill="#F8CA29" stroke="black"/>
<path d="M77.882 23.4906L78.3788 23.5465C78.6313 21.3046 79.1535 19.107 79.9001 16.9747L80.133 16.3095H79.4282C79.4198 16.3095 79.407 16.3088 79.3818 16.3052C77.166 15.9045 74.9945 15.2888 72.931 14.4027L72.9304 14.4024L72.9032 14.3908C72.5827 14.2537 72.2576 14.1146 71.9865 13.9313C71.7093 13.7437 71.5589 13.5557 71.513 13.3552L71.5129 13.3547C71.4785 13.2053 71.5124 13.0539 71.634 12.87C71.7619 12.6766 71.9588 12.4916 72.1786 12.3065C74.3536 10.4814 77.4457 9.60868 80.3481 9.79714L80.8059 9.82687L80.8748 9.37328C80.9806 8.67692 81.0869 7.98053 81.1933 7.28392C81.2997 6.58737 81.406 5.8906 81.5119 5.19381C81.5295 5.07859 81.5465 4.96493 81.5632 4.85285C81.7715 3.45772 81.9432 2.30798 82.879 1.46505L82.879 1.46506L82.8814 1.46284C82.9983 1.35611 83.4285 1.0092 83.8644 0.754992C84.0859 0.625789 84.2733 0.541848 84.4038 0.511076C84.409 0.509843 84.4139 0.508731 84.4186 0.507728C85.3882 1.82336 86.2022 3.23434 86.8119 4.74452C87.1005 5.46339 87.3467 6.19624 87.5464 6.94314L87.547 6.94518C87.6561 7.34657 87.7505 7.74983 87.8302 8.15713C87.8399 8.20712 87.8474 8.28223 87.8578 8.38645C87.8657 8.46543 87.8752 8.56114 87.8886 8.6753C87.9021 8.79001 87.9194 8.9159 87.9431 9.03039C87.9632 9.12724 88.0001 9.2821 88.0803 9.41072L88.0816 9.41279C88.2824 9.73115 88.6434 9.83045 88.8851 9.86967C89.155 9.91348 89.4616 9.91032 89.7439 9.89317C90.0307 9.87575 90.3226 9.84164 90.567 9.81286C90.826 9.78235 91.0086 9.7611 91.1185 9.75898L91.1197 9.75895C91.9126 9.74184 92.7089 9.75465 93.5068 9.79115C95.099 9.86399 96.6807 10.0536 98.2507 10.3451C96.7185 12.2996 94.6491 13.8429 92.3539 14.817L91.7421 15.0766L92.1612 15.5925C93.4702 17.2039 94.6453 18.9162 95.6513 20.7315C95.6847 20.7918 95.718 20.8514 95.751 20.9104C95.9328 21.2355 96.1048 21.5433 96.226 21.8632C96.3658 22.2322 96.4138 22.5603 96.336 22.8682C96.2004 23.4048 95.6648 23.8565 95.0366 24.2208L95.0361 24.2212C94.2266 24.6921 93.573 24.8358 92.8004 24.5171L92.7994 24.5168C91.9748 24.1786 91.174 23.679 90.4018 23.1516C89.1102 22.2688 87.9655 21.2079 86.9702 20.0033L86.5643 19.512L86.1837 20.0231C85.4791 20.9694 84.716 21.8717 83.8925 22.7154C82.5495 24.0912 81.0486 25.5928 79.3872 26.2944C79.0587 26.4329 78.761 26.5142 78.5492 26.498C78.4557 26.4909 78.4038 26.4663 78.3711 26.44C78.3396 26.4146 78.2861 26.3556 78.2453 26.2073L78.2452 26.2069C78.1511 25.866 78.1493 25.445 78.1948 24.9668C78.2172 24.7314 78.2499 24.4931 78.284 24.2529C78.2886 24.2209 78.2932 24.1889 78.2978 24.1567C78.3272 23.9512 78.357 23.7427 78.3789 23.546L77.882 23.4906ZM77.882 23.4906C77.861 23.679 77.8324 23.8788 77.8029 24.0851C77.696 24.8331 77.577 25.6653 77.7632 26.3399L79.3065 16.7669L79.4282 16.8095V17.3095C79.3663 17.3095 79.3104 17.3045 79.2614 17.298C78.592 19.3098 78.1197 21.3798 77.882 23.4906ZM84.4829 0.499381C84.4826 0.499682 84.479 0.49991 84.4728 0.499162C84.4801 0.498706 84.4831 0.49908 84.4829 0.499381Z" fill="#F8CA29" stroke="black"/>
<path d="M114.882 23.4906L115.379 23.5465C115.631 21.3046 116.153 19.107 116.9 16.9747L117.133 16.3095H116.428C116.42 16.3095 116.407 16.3088 116.382 16.3052C114.166 15.9045 111.994 15.2888 109.931 14.4027L109.93 14.4024L109.903 14.3908C109.583 14.2537 109.258 14.1146 108.987 13.9313C108.709 13.7437 108.559 13.5557 108.513 13.3552L108.513 13.3547C108.478 13.2053 108.512 13.0539 108.634 12.87C108.762 12.6766 108.959 12.4916 109.179 12.3065C111.354 10.4814 114.446 9.60868 117.348 9.79714L117.806 9.82687L117.875 9.37328C117.981 8.67692 118.087 7.98053 118.193 7.28392C118.3 6.58737 118.406 5.8906 118.512 5.19381C118.53 5.07859 118.546 4.96493 118.563 4.85285C118.772 3.45772 118.943 2.30798 119.879 1.46505L119.879 1.46506L119.881 1.46284C119.998 1.35611 120.428 1.0092 120.864 0.754992C121.086 0.625789 121.273 0.541848 121.404 0.511076C121.409 0.509843 121.414 0.508731 121.419 0.507728C122.388 1.82336 123.202 3.23434 123.812 4.74452C124.101 5.46339 124.347 6.19624 124.546 6.94314L124.547 6.94518C124.656 7.34657 124.751 7.74983 124.83 8.15713C124.84 8.20712 124.847 8.28223 124.858 8.38645C124.866 8.46543 124.875 8.56114 124.889 8.6753C124.902 8.79001 124.919 8.9159 124.943 9.03039C124.963 9.12724 125 9.2821 125.08 9.41072L125.082 9.41279C125.282 9.73115 125.643 9.83045 125.885 9.86967C126.155 9.91348 126.462 9.91032 126.744 9.89317C127.031 9.87575 127.323 9.84164 127.567 9.81286C127.826 9.78235 128.009 9.7611 128.119 9.75898L128.12 9.75895C128.913 9.74184 129.709 9.75465 130.507 9.79115C132.099 9.86399 133.681 10.0536 135.251 10.3451C133.719 12.2996 131.649 13.8429 129.354 14.817L128.742 15.0766L129.161 15.5925C130.47 17.2039 131.645 18.9162 132.651 20.7315C132.685 20.7918 132.718 20.8514 132.751 20.9104C132.933 21.2355 133.105 21.5433 133.226 21.8632C133.366 22.2322 133.414 22.5603 133.336 22.8682C133.2 23.4048 132.665 23.8565 132.037 24.2208L132.036 24.2212C131.227 24.6921 130.573 24.8358 129.8 24.5171L129.799 24.5168C128.975 24.1786 128.174 23.679 127.402 23.1516C126.11 22.2688 124.966 21.2079 123.97 20.0033L123.564 19.512L123.184 20.0231C122.479 20.9694 121.716 21.8717 120.893 22.7154C119.549 24.0912 118.049 25.5928 116.387 26.2944C116.059 26.4329 115.761 26.5142 115.549 26.498C115.456 26.4909 115.404 26.4663 115.371 26.44C115.34 26.4146 115.286 26.3556 115.245 26.2073L115.245 26.2069C115.151 25.866 115.149 25.445 115.195 24.9668C115.217 24.7314 115.25 24.4931 115.284 24.2529C115.289 24.2209 115.293 24.1889 115.298 24.1567C115.327 23.9512 115.357 23.7427 115.379 23.546L114.882 23.4906ZM114.882 23.4906C114.861 23.679 114.832 23.8788 114.803 24.0851C114.696 24.8331 114.577 25.6653 114.763 26.3399L116.306 16.7669L116.428 16.8095V17.3095C116.366 17.3095 116.31 17.3045 116.261 17.298C115.592 19.3098 115.12 21.3798 114.882 23.4906ZM121.483 0.499381C121.483 0.499682 121.479 0.49991 121.473 0.499162C121.48 0.498706 121.483 0.49908 121.483 0.499381Z" fill="#F8CA29" stroke="black"/>
<path d="M148.882 23.4906L149.379 23.5465C149.631 21.3046 150.153 19.107 150.9 16.9747L151.133 16.3095H150.428C150.42 16.3095 150.407 16.3088 150.382 16.3052C148.166 15.9045 145.994 15.2888 143.931 14.4027L143.93 14.4024L143.903 14.3908C143.583 14.2537 143.258 14.1146 142.987 13.9313C142.709 13.7437 142.559 13.5557 142.513 13.3552L142.513 13.3547C142.478 13.2053 142.512 13.0539 142.634 12.87C142.762 12.6766 142.959 12.4916 143.179 12.3065C145.354 10.4814 148.446 9.60868 151.348 9.79714L151.806 9.82687L151.875 9.37328C151.981 8.67692 152.087 7.98053 152.193 7.28392C152.3 6.58737 152.406 5.8906 152.512 5.19381C152.53 5.07859 152.546 4.96493 152.563 4.85285C152.772 3.45772 152.943 2.30798 153.879 1.46505L153.879 1.46506L153.881 1.46284C153.998 1.35611 154.428 1.0092 154.864 0.754992C155.086 0.625789 155.273 0.541848 155.404 0.511076C155.409 0.509843 155.414 0.508731 155.419 0.507728C156.388 1.82336 157.202 3.23434 157.812 4.74452C158.101 5.46339 158.347 6.19624 158.546 6.94314L158.547 6.94518C158.656 7.34657 158.751 7.74983 158.83 8.15713C158.84 8.20712 158.847 8.28223 158.858 8.38645C158.866 8.46543 158.875 8.56114 158.889 8.6753C158.902 8.79001 158.919 8.9159 158.943 9.03039C158.963 9.12724 159 9.2821 159.08 9.41072L159.082 9.41279C159.282 9.73115 159.643 9.83045 159.885 9.86967C160.155 9.91348 160.462 9.91032 160.744 9.89317C161.031 9.87575 161.323 9.84164 161.567 9.81286C161.826 9.78235 162.009 9.7611 162.119 9.75898L162.12 9.75895C162.913 9.74184 163.709 9.75465 164.507 9.79115C166.099 9.86399 167.681 10.0536 169.251 10.3451C167.719 12.2996 165.649 13.8429 163.354 14.817L162.742 15.0766L163.161 15.5925C164.47 17.2039 165.645 18.9162 166.651 20.7315C166.685 20.7918 166.718 20.8514 166.751 20.9104C166.933 21.2355 167.105 21.5433 167.226 21.8632C167.366 22.2322 167.414 22.5603 167.336 22.8682C167.2 23.4048 166.665 23.8565 166.037 24.2208L166.036 24.2212C165.227 24.6921 164.573 24.8358 163.8 24.5171L163.799 24.5168C162.975 24.1786 162.174 23.679 161.402 23.1516C160.11 22.2688 158.966 21.2079 157.97 20.0033L157.564 19.512L157.184 20.0231C156.479 20.9694 155.716 21.8717 154.893 22.7154C153.549 24.0912 152.049 25.5928 150.387 26.2944C150.059 26.4329 149.761 26.5142 149.549 26.498C149.456 26.4909 149.404 26.4663 149.371 26.44C149.34 26.4146 149.286 26.3556 149.245 26.2073L149.245 26.2069C149.151 25.866 149.149 25.445 149.195 24.9668C149.217 24.7314 149.25 24.4931 149.284 24.2529C149.289 24.2209 149.293 24.1889 149.298 24.1567C149.327 23.9512 149.357 23.7427 149.379 23.546L148.882 23.4906ZM148.882 23.4906C148.861 23.679 148.832 23.8788 148.803 24.0851C148.696 24.8331 148.577 25.6653 148.763 26.3399L150.306 16.7669L150.428 16.8095V17.3095C150.366 17.3095 150.31 17.3045 150.261 17.298C149.592 19.3098 149.12 21.3798 148.882 23.4906ZM155.483 0.499381C155.483 0.499682 155.479 0.49991 155.473 0.499162C155.48 0.498706 155.483 0.49908 155.483 0.499381Z" fill="#F8CA29" stroke="black"/>
</svg>
