<svg width="20" height="25" viewBox="0 0 32 40" fill="none" xmlns="http://www.w3.org/2000/svg">
<path d="M26.5596 21.2357C26.5981 18.2352 28.2032 15.3961 30.7496 13.8245C29.1432 11.5213 26.4526 10.0611 23.6533 9.97316C20.6676 9.65855 17.7731 11.7667 16.2517 11.7667C14.7008 11.7667 12.3582 10.0044 9.83574 10.0565C6.54778 10.1631 3.48256 12.0398 1.8829 14.9256C-1.55575 20.9023 1.00917 29.6861 4.30311 34.5172C5.95114 36.8829 7.87721 39.5254 10.3974 39.4317C12.8636 39.329 13.7847 37.8529 16.7616 37.8529C19.7109 37.8529 20.575 39.4317 23.1464 39.3721C25.7927 39.329 27.46 36.9959 29.0503 34.6078C30.2344 32.9222 31.1455 31.0592 31.75 29.0879C28.6401 27.7674 26.5632 24.6255 26.5596 21.2357Z" fill="#090909"/>
<path d="M21.7027 6.79597C23.1456 5.05707 23.8565 2.82201 23.6843 0.56543C21.4799 0.797865 19.4436 1.85555 17.9812 3.52773C16.5512 5.16154 15.807 7.35728 15.9477 9.5276C18.1529 9.5504 20.3208 8.52139 21.7027 6.79597Z" fill="#090909"/>
</svg>
