<svg width="48" height="45" viewBox="0 0 48 45" fill="none" xmlns="http://www.w3.org/2000/svg">
<path fill-rule="evenodd" clip-rule="evenodd" d="M8.50039 2.81609C5.53274 7.07467 2.19028 13.4596 1.20236 16.6666C0.636756 18.6042 0.857937 20.2432 1.73698 20.6695C3.15236 21.3899 3.55789 20.932 5.61919 16.0901C6.83378 13.2347 10.6414 6.21605 10.8643 6.37286C11.0486 6.50253 11.1257 12.1346 11.0578 16.5657C10.93 22.6847 11.2132 24.3129 12.5281 25.2125C14.1496 26.3823 15.1667 25.9157 19.1468 22.0941C22.3779 18.9819 26.1786 15.9663 27.9958 15.1048C28.6476 14.7658 28.6421 14.9284 27.6851 17.7728C24.3236 27.7454 23.8253 29.8969 24.5574 31.511C24.9725 32.4054 26.6823 32.9805 29.2224 33.1179C31.5655 33.2255 40.1095 34.5149 40.1527 34.7632C40.1742 34.8873 39.5262 35.4213 38.6934 36.0175C36.4196 37.6053 32.1822 41.2461 31.4079 42.3511C29.7814 44.5034 31.2593 45.0211 33.5463 43.1413C35.6301 41.391 39.6091 38.8596 41.3858 38.133C46.209 36.1957 47.6393 35.142 47.3884 33.7C47.323 33.324 46.9004 32.7544 46.4298 32.4488C45.412 31.7872 34.9508 29.7029 31.0019 29.4233C29.3981 29.2848 28.002 29.0425 27.9032 28.8641C27.8088 28.6887 28.684 25.5689 29.8241 21.9179C31.5756 16.4191 31.8856 15.045 31.6837 13.884C31.335 11.8798 30.2792 10.9991 28.556 11.2989C25.8619 11.7676 20.3506 15.3064 16.4545 19.0495C15.6491 19.8027 14.9112 20.3824 14.8034 20.3034C14.6977 20.2578 14.622 17.4012 14.5828 14.0193C14.5677 10.603 14.3596 6.25 14.1224 4.3242C13.6441 0.277679 13.2944 -0.240702 11.3559 0.0965209C10.4177 0.259734 10.0014 0.655614 8.50832 2.81847L8.50039 2.81609Z" fill="#4D7A4C"/>
</svg>
