<svg width="20" height="17" viewBox="0 0 20 17" fill="none" xmlns="http://www.w3.org/2000/svg">
<path d="M4.42693 17C3.91796 16.768 3.58648 16.3271 3.28045 15.8645C2.46871 14.6385 1.85469 13.2947 1.2759 11.9328C0.859595 10.952 0.474608 9.95582 0.08179 8.96384C-0.113314 8.47063 0.0400287 8.22473 0.548343 8.20313C0.905924 8.18781 1.26351 8.17039 1.62109 8.17666C1.71636 8.17805 1.84033 8.23587 1.89971 8.3132C2.26904 8.79456 2.71537 9.15471 3.25761 9.38459C3.93688 9.67229 4.6129 9.96975 5.28956 10.2637C5.30326 10.27 5.31436 10.2846 5.34503 10.3118C5.15971 11.1449 4.95482 11.9844 4.79299 12.8328C4.72644 13.1825 4.6899 13.5657 4.75058 13.9105C4.88239 14.6594 5.49054 15.1832 6.21484 15.2654C6.88954 15.3421 7.59622 14.9485 7.87094 14.2672C8.42623 12.8872 8.95477 11.4939 9.4794 10.0993C9.65884 9.62214 9.64057 9.1143 9.56031 8.58139C9.94204 8.54865 10.312 8.51661 10.6826 8.48456C10.9822 8.45879 11.2849 8.45113 11.5812 8.40236C12.7903 8.20522 13.4017 6.9534 12.8732 5.77333C12.8595 5.74268 12.8464 5.71133 12.8151 5.63819C13.1146 5.50723 13.4056 5.35954 13.7084 5.25296C14.0777 5.12339 14.4562 5.02238 14.8346 4.92277C14.9775 4.88515 15.0669 4.83221 15.1302 4.66989C15.3756 4.03946 15.7443 3.50585 16.2872 3.12689C16.4529 3.01125 16.6219 2.94159 16.8092 3.06559C17.0017 3.19307 17.033 3.38673 17.0088 3.61173C16.9638 4.03528 16.9188 4.45952 16.8979 4.88445C16.8927 4.99103 16.9547 5.13384 17.0304 5.20768C17.7436 5.90778 18.4607 6.6037 19.1883 7.28569C19.5465 7.62215 19.8734 7.97185 20 8.48317V8.95339C19.9889 8.96593 19.9713 8.97638 19.9687 8.99031C19.8055 9.92865 18.8646 10.4191 18.0203 10.061C17.3344 9.76982 16.6258 9.54272 15.9315 9.27383C15.7443 9.20138 15.6059 9.2188 15.4415 9.34697C14.5971 10.0046 13.9603 10.8433 13.4474 11.8109C12.6174 13.3755 11.4167 14.5256 9.92964 15.3504C8.88561 15.9293 7.7463 16.1752 6.62201 16.4768C5.98711 16.6475 5.35351 16.8258 4.71926 17H4.42628H4.42693Z" fill="#4D7A4C"/>
<path d="M10.3048 0.000612072C10.4263 0.0397847 10.5498 0.0752848 10.6701 0.11813C11.617 0.454769 12.1592 1.42674 11.9584 2.4238C11.7638 3.38843 10.8869 4.0464 9.85957 3.99744C8.9262 3.95337 8.10336 3.16931 8.01064 2.23529C7.9087 1.21129 8.54855 0.297467 9.53658 0.0532502C9.5943 0.0391726 9.65018 0.0177501 9.70728 0C9.90624 0 10.1052 0.000612072 10.3048 0.000612072Z" fill="#4D7A4C"/>
<path d="M6.18891 10.1794C5.61868 9.91847 5.0645 9.66479 4.50968 9.41183C4.15392 9.24947 3.79624 9.09219 3.44241 8.92476C1.87684 8.18257 1.50503 5.98207 2.72705 4.6506C3.86431 3.41119 5.15889 2.47692 6.72639 2.09712C6.88115 2.05943 7.03848 2.03407 7.20737 2C7.24525 2.1696 7.27158 2.31891 7.3114 2.46315C7.55991 3.35321 8.04795 4.02075 8.78386 4.44186C8.94311 4.53318 9.00668 4.64046 9.01375 4.8318C9.02595 5.1384 9.05485 5.44426 9.07861 5.77984C9.54481 5.82768 10.004 5.87624 10.4631 5.92263C10.702 5.94655 10.9415 5.96467 11.181 5.98714C11.6549 6.03208 11.9895 6.40825 11.9998 6.90691C12.01 7.41355 11.6787 7.82451 11.1958 7.87308C10.526 7.94048 9.85561 7.99049 9.1852 8.04775C8.99384 8.06442 8.80248 8.08762 8.61112 8.09849C7.94649 8.13618 7.49248 7.74841 7.34029 7.01636C7.2581 6.62062 7.17654 6.22487 7.07573 5.73998C6.6442 6.08426 6.24735 6.40028 5.80169 6.75615C6.1446 6.962 6.41045 7.1229 6.67759 7.28236C7.00252 7.47661 7.3313 7.66433 7.65302 7.8651C8.48461 8.38334 8.81661 9.39951 8.46214 10.3947C7.99015 11.7196 7.5034 13.038 7.01665 14.3564C6.82143 14.8848 6.38926 15.1146 5.94874 14.945C5.53199 14.7848 5.31815 14.2984 5.43245 13.7519C5.67968 12.5727 5.93076 11.3956 6.18827 10.1801L6.18891 10.1794Z" fill="#4D7A4C"/>
</svg>
