<svg width="20" height="19" viewBox="0 0 20 19" fill="none" xmlns="http://www.w3.org/2000/svg">
<path d="M0.658391 18.1818C0.410436 18.0955 0.191714 17.9783 0.0737395 17.7459C-0.0306625 17.54 -0.0108262 17.336 0.050771 17.1235C0.553467 15.3982 1.15273 13.7009 1.83918 12.0292C2.61019 10.1511 3.48612 8.31528 4.56355 6.56341C4.598 6.50743 4.63454 6.45288 4.68309 6.37793C7.58076 8.58094 10.468 10.7759 13.35 12.967C13.0274 13.2592 12.7147 13.5429 12.3843 13.8418C11.8884 13.5211 11.3773 13.1905 10.8271 12.8351V13.0529C10.8271 14.431 10.8136 15.8095 10.8345 17.1876C10.8418 17.66 10.6951 18.0044 10.1919 18.1818H0.658391Z" fill="#4D7A4C"/>
<path d="M20 13.0329C19.8674 13.3707 19.7599 13.7189 19.5976 14.0448C19.1199 15.0054 18.3682 15.6909 17.1974 15.9247C16.6806 16.0277 16.1617 16.022 15.6533 15.8858C15.4789 15.8394 15.3213 15.7416 15.1573 15.6676C16.5652 14.3882 17.9491 13.1307 19.3679 11.8413C19.5767 12.1297 19.7881 12.4215 19.9995 12.7132V13.0329H20Z" fill="#4D7A4C"/>
<path d="M15.7356 10.8294C12.6552 8.4874 9.6009 6.16533 6.55341 3.848C6.55915 3.82096 6.55706 3.8053 6.56437 3.79914C7.00181 3.43861 7.02896 2.9315 7.13597 2.45712C7.26908 1.867 7.37975 1.27261 7.49772 0.67916C7.56819 0.325749 7.8031 0.0895094 8.16433 0.0174041C8.5005 -0.0499574 8.83198 0.0800218 9.0507 0.376033C9.48606 0.964735 9.91985 1.55486 10.3474 2.14878C10.4173 2.24555 10.4914 2.27734 10.6157 2.27591C11.2212 2.27022 11.8268 2.27591 12.4323 2.27212C12.8165 2.26974 13.0916 2.42107 13.2659 2.72989C14.5141 4.93954 15.8551 7.1008 17.3219 9.19707C17.3517 9.23929 17.3653 9.33369 17.3371 9.36026C16.8104 9.85123 16.2764 10.3351 15.7356 10.8289V10.8294Z" fill="#4D7A4C"/>
<path d="M13.9127 15.6539C13.5369 15.3123 13.1558 14.966 12.7706 14.6159C13.3777 14.0728 13.9916 13.5234 14.6305 12.9523C11.1633 10.3157 7.73632 7.71043 4.29053 5.09045C4.64602 4.70383 4.99837 4.32101 5.3596 3.92822C8.83462 6.57003 12.2982 9.20329 15.7664 11.8399C16.6982 10.9912 17.6237 10.1483 18.5404 9.31287C18.9564 9.69095 19.3416 10.041 19.7159 10.3812C17.7881 12.133 15.8515 13.893 13.9138 15.6539H13.9127Z" fill="#4D7A4C"/>
</svg>
