<svg width="19" height="19" viewBox="0 0 19 19" fill="none" xmlns="http://www.w3.org/2000/svg">
<path d="M12.9858 0C13.2455 0 13.5057 0 13.7654 0C13.7943 0.00860555 13.8231 0.0227794 13.853 0.0253104C14.789 0.10276 15.6532 0.39383 16.4364 0.910163C17.6058 1.68162 18.4001 2.73859 18.7773 4.09168C18.881 4.46425 18.9271 4.85252 19 5.23369V6.01325C18.9904 6.05476 18.9767 6.09576 18.9727 6.13778C18.8395 7.5096 18.2675 8.67237 17.297 9.64327C14.743 12.1986 12.1879 14.7524 9.63239 17.3063C8.61635 18.3217 7.3963 18.8978 5.95855 18.9879C4.74255 19.0643 3.61058 18.7798 2.59099 18.1126C1.1006 17.1377 0.227321 15.7562 0.0364659 13.986C-0.156921 12.192 0.422227 10.6451 1.69392 9.36891C4.24794 6.80496 6.81057 4.24962 9.37066 1.69124C10.1452 0.91725 11.0575 0.385731 12.1317 0.148825C12.4142 0.0865617 12.7023 0.0491022 12.9873 0.000506209L12.9858 0ZM12.5737 11.9172C12.5782 11.9131 12.5985 11.8984 12.6157 11.8812C13.7836 10.7139 14.9672 9.56127 16.1149 8.37421C17.2767 7.17146 17.5916 5.74142 16.9826 4.18533C16.4166 2.74061 15.2958 1.91954 13.7517 1.75452C12.5099 1.62189 11.4453 2.05268 10.5629 2.93803C9.43647 4.0684 8.30653 5.19522 7.1781 6.32356C7.14014 6.36152 7.1047 6.40303 7.08141 6.42834C8.91605 8.26183 10.7431 10.0877 12.5737 11.9172ZM1.73645 13.1832C1.73645 13.2758 1.72632 13.3695 1.73847 13.4606C1.76631 13.6631 1.92933 13.8038 2.13183 13.8129C2.33534 13.8225 2.5191 13.7015 2.55657 13.5021C2.60162 13.2601 2.60669 13.0106 2.65377 12.7691C2.77577 12.1424 3.09521 11.6231 3.54476 11.1761C4.36083 10.3646 5.17235 9.54912 5.9864 8.73615C6.1084 8.61466 6.20763 8.48355 6.17928 8.29777C6.15396 8.13123 6.0593 8.00873 5.90286 7.95507C5.69885 7.88521 5.53229 7.96671 5.38548 8.11402C4.55118 8.95078 3.71182 9.78248 2.88006 10.6213C2.17789 11.33 1.78758 12.1824 1.73645 13.1832Z" fill="#4D7A4C"/>
</svg>
