<svg width="17" height="19" viewBox="0 0 17 19" fill="none" xmlns="http://www.w3.org/2000/svg">
<path d="M0 17.9022C0 14.3022 0 10.7022 0 7.10219C0.0598629 6.97107 0.113072 6.83572 0.180917 6.70976C1.00703 5.17342 1.83225 3.63614 2.66723 2.10496C2.78252 1.89347 2.8446 1.68809 2.83351 1.44418C2.81888 1.13023 2.82996 0.815353 2.82996 0.5H4.25382V1.22188H12.7539V0.502349H14.1653C14.1653 0.867049 14.156 1.21859 14.1698 1.56872C14.1755 1.70783 14.2066 1.8601 14.2709 1.97948C15.1258 3.57974 15.9923 5.17295 16.8432 6.77509C16.9332 6.94475 16.9869 7.16047 16.9882 7.35551C16.9993 9.00277 16.9949 10.65 16.9949 12.2973V12.4984H10.6303V13.9995H16.9838V15.5077H10.6321V17.0031H16.9949C16.9949 17.2057 16.9851 17.388 16.9966 17.5685C17.0272 18.0319 16.8499 18.3468 16.4304 18.5H0.564484C0.28069 18.4022 0.0922332 18.203 0 17.9017V17.9022ZM13.439 2.00204C13.3738 1.99828 13.3259 1.99311 13.2785 1.99311C10.0818 1.99311 6.88512 1.99311 3.688 1.99029C3.58202 1.99029 3.52083 2.01942 3.46584 2.12188C2.7129 3.5271 1.95508 4.9295 1.19903 6.33285C1.17376 6.37937 1.1538 6.42872 1.12232 6.49546C1.19193 6.49546 1.23052 6.49546 1.26909 6.49546C4.47154 6.49546 7.67354 6.49499 10.876 6.49781C10.9829 6.49781 11.0432 6.46632 11.0977 6.36433C11.8511 4.95911 12.6089 3.55671 13.3658 2.15384C13.3898 2.10966 13.4097 2.06313 13.439 2.00204ZM5.6617 13.9972C6.35257 13.9972 7.04387 13.9981 7.73474 13.9972C8.19901 13.9962 8.49477 13.6865 8.49654 13.1996C8.49832 12.7076 8.50053 12.215 8.49654 11.723C8.48235 10.0767 7.23765 8.76073 5.68431 8.74757C4.2108 8.73488 2.96876 9.91546 2.85302 11.472C2.81045 12.043 2.83085 12.6197 2.83129 13.1935C2.83129 13.6926 3.12928 13.9967 3.60508 13.9977C4.29062 13.9986 4.97616 13.9977 5.6617 13.9977V13.9972Z" fill="#4D7A4C"/>
</svg>
