<svg width="18" height="18" viewBox="0 0 18 18" fill="none" xmlns="http://www.w3.org/2000/svg">
<path d="M0 13.3706C0.0726544 13.056 0.122236 12.7346 0.221891 12.4288C0.500726 11.572 1.00538 10.8716 1.74763 10.3529C2.33525 9.94261 2.96852 9.88765 3.60572 10.2008C3.95377 10.3715 4.29299 10.5831 4.58901 10.8329C5.55855 11.651 6.45937 12.5422 7.26151 13.5267C7.46819 13.7799 7.64246 14.068 7.78777 14.3615C8.1314 15.0569 8.05335 15.7302 7.58551 16.3442C6.87959 17.2692 5.93655 17.7973 4.78734 17.9637C4.73432 17.9715 4.68228 17.9877 4.62976 18H3.85805C3.8173 17.9892 3.77705 17.974 3.73532 17.9676C2.03678 17.7139 0.868417 16.7878 0.2538 15.1869C0.126654 14.8542 0.0824726 14.4905 0 14.1421C0 13.8849 0 13.6278 0 13.3706ZM4.08534 16.5302C4.76966 16.5302 5.27775 16.378 5.74068 16.0762C6.34401 15.6831 6.50944 14.864 6.02197 14.3374C5.26695 13.5223 4.47807 12.7351 3.66365 11.9788C3.1423 11.4949 2.32445 11.6456 1.93761 12.2448C1.35147 13.1537 1.29502 14.1092 1.80163 15.0618C2.30874 16.0153 3.1423 16.483 4.08534 16.5297V16.5302Z" fill="#4D7A4C"/>
<path d="M18 4.07989C17.9549 5.58191 17.4473 6.70388 16.3864 7.55138C15.7003 8.09935 14.9633 8.13274 14.197 7.72029C13.6917 7.44777 13.2517 7.08639 12.8499 6.68375C12.1761 6.0091 11.5058 5.32953 10.8633 4.62541C10.6115 4.34946 10.4076 4.01753 10.2351 3.68364C9.85782 2.95399 9.93671 2.24103 10.4566 1.60909C11.5332 0.300532 12.9317 -0.234676 14.5841 0.0947963C16.2614 0.429179 17.3463 1.48487 17.8344 3.12879C17.9392 3.48232 17.9632 3.86041 18 4.07989ZM13.9284 1.47259C13.2238 1.47357 12.7112 1.62726 12.256 1.92825C11.6591 2.32303 11.4901 3.13419 11.9688 3.6532C12.7259 4.47369 13.5168 5.26717 14.3351 6.02677C14.857 6.51091 15.6724 6.35772 16.0576 5.75622C16.6397 4.84637 16.698 3.88938 16.1904 2.9368C15.6822 1.98374 14.8482 1.51924 13.9284 1.47259Z" fill="#4D7A4C"/>
<path d="M11 9.68208C10.5712 10.112 10.1201 10.5645 9.68574 11C8.79562 10.1077 7.89397 9.20381 7 8.30764C7.4267 7.88632 7.88414 7.4346 8.32451 7C9.19626 7.8739 10.0979 8.77778 11 9.68208Z" fill="#4D7A4C"/>
<path d="M13 7.91267C12.6293 8.28236 12.2622 8.64835 11.91 9C10.9397 8.0288 9.96337 7.05205 9 6.0878C9.3467 5.74124 9.71605 5.37201 10.0882 5C10.966 6.03505 11.946 7.01596 13 7.91267Z" fill="#4D7A4C"/>
<path d="M9 11.9152C8.64303 12.2725 8.2726 12.6432 7.9161 13C7.4519 12.5086 6.98584 11.9945 6.49611 11.5041C6.00592 11.0137 5.49159 10.5474 5 10.0825C5.35326 9.72938 5.72369 9.35912 6.08298 9C7.04758 9.96416 8.0289 10.9446 9 11.9152Z" fill="#4D7A4C"/>
</svg>
