<svg width="20" height="19" viewBox="0 0 20 19" fill="none" xmlns="http://www.w3.org/2000/svg">
<path d="M18.7095 5.30085C18.727 5.3465 18.7438 5.39275 18.7623 5.43819C18.9636 5.9398 18.8384 6.46822 18.4384 6.8027C18.406 6.82944 18.3727 6.8557 18.3397 6.88166C14.1585 10.1712 9.97711 13.4596 5.79781 16.7516C5.49821 16.9873 5.17193 17.1149 4.78431 17.0327C4.30911 16.9313 3.98306 16.641 3.84687 16.1674C3.70861 15.6866 3.83855 15.2758 4.19951 14.9573C4.40144 14.7793 4.62158 14.622 4.85064 14.4418C4.579 14.0965 4.30605 13.7715 4.05868 13.4282C3.85461 13.1454 3.65091 12.8553 3.4997 12.5436C2.73157 10.9625 3.1163 9.02758 4.43541 7.97124C6.31928 6.46291 8.2137 4.96799 10.1248 3.49508C11.7209 2.26556 14.0989 2.62999 15.4144 4.26854C15.7153 4.64318 16.009 5.02349 16.3182 5.41651C16.468 5.29865 16.6106 5.19982 16.7383 5.08344C17.2531 4.61324 17.8591 4.52356 18.477 5.0053L18.7095 5.30085ZM10.8637 10.2764C12.122 9.28639 13.3804 8.29639 14.6383 7.30669C14.831 7.15512 14.8423 7.04148 14.6862 6.8423C14.3853 6.45747 14.0839 6.07293 13.78 5.69048C13.0993 4.83464 12.0199 4.66683 11.1882 5.31413C9.43608 6.67855 7.68949 8.05077 5.95228 9.43413C5.12812 10.0902 5.04459 11.1781 5.71882 12.0428C6.00757 12.413 6.29929 12.7814 6.58994 13.1501C6.78614 13.3995 6.87756 13.4119 7.11724 13.2233C8.36609 12.2408 9.61494 11.2582 10.8634 10.276L10.8637 10.2764Z" fill="#4D7A4C"/>
<path d="M16.0811 12.9608C15.9869 12.8411 15.8998 12.7303 15.813 12.6199C15.4873 12.206 15.161 11.7927 14.8364 11.3779C14.7733 11.2977 14.7012 11.2223 14.6057 11.2949C14.5035 11.373 14.5566 11.467 14.6244 11.5531C14.9983 12.0269 15.3707 12.5018 15.7442 12.9765C15.7835 13.0265 15.8228 13.0764 15.8668 13.1324L14.6512 14.0888L14.3631 13.7226C14.063 13.3411 13.7628 12.9597 13.463 12.5786C13.441 12.5506 13.4186 12.5229 13.397 12.4947C13.3324 12.4096 13.2508 12.3567 13.1614 12.4313C13.0783 12.5003 13.1172 12.5838 13.1789 12.6614C13.4473 12.9996 13.7135 13.3402 13.9808 13.6799C14.1298 13.8693 14.2791 14.0591 14.4349 14.2571L13.2106 15.2203C13.1719 15.1711 13.1335 15.1222 13.0953 15.0738C12.7222 14.5994 12.3486 14.1254 11.9755 13.6504C11.9107 13.568 11.8387 13.4743 11.7342 13.5553C11.6226 13.6414 11.6955 13.7392 11.7647 13.8272C12.1714 14.3427 12.5765 14.859 12.9919 15.387L11.7762 16.3434C11.6574 16.1924 11.5412 16.0447 11.4251 15.8971C11.1469 15.5435 10.8688 15.19 10.5907 14.8365C10.5687 14.8086 10.5463 14.7809 10.5247 14.7526C10.4598 14.6679 10.3777 14.6153 10.2887 14.6902C10.2058 14.7596 10.2461 14.8432 10.3075 14.9205C10.5832 15.268 10.8567 15.6179 11.131 15.9666C11.2727 16.1467 11.4144 16.3268 11.5629 16.5155L10.3386 17.4787C10.2993 17.4287 10.2609 17.3799 10.2225 17.331C9.85662 16.866 9.49084 16.4003 9.12464 15.9356C9.05687 15.8495 8.98599 15.7181 8.86277 15.8144C8.73274 15.9161 8.84425 16.021 8.91642 16.1127C9.3144 16.6201 9.71352 17.1259 10.1307 17.6561C10.0594 17.7123 9.99488 17.763 9.93037 17.8138C9.65763 18.0283 9.38666 18.2452 9.11164 18.4561C8.842 18.6628 8.52013 18.6468 8.28365 18.3897C7.45102 17.4848 6.62682 16.5714 5.79041 15.6514L16.5994 7.14733C16.8627 7.53427 17.1256 7.91786 17.3861 8.30276C17.7938 8.90507 18.1972 9.51075 18.6091 10.1103C18.8724 10.4936 18.8401 10.8022 18.4902 11.0787C18.1747 11.3281 17.858 11.5761 17.5272 11.8363C17.3849 11.6555 17.2544 11.4895 17.1235 11.3232C16.8419 10.9652 16.5632 10.6043 16.2747 10.2517C16.2305 10.1977 16.139 10.1478 16.0754 10.1525C15.9636 10.1608 15.9574 10.2835 16.0597 10.4143C16.4318 10.8894 16.8057 11.3632 17.1792 11.8379C17.2185 11.8878 17.2578 11.9378 17.3044 11.9971L16.0802 12.9603L16.0811 12.9608Z" fill="#4D7A4C"/>
</svg>
