<svg width="375" height="202" viewBox="0 0 375 202" fill="none" xmlns="http://www.w3.org/2000/svg">
<rect width="375" height="202" fill="white"/>
<rect x="114" y="10" width="31.0439" height="31.0439" rx="8" fill="#4D7A4C"/>
<path d="M164.888 31.1074V27.1904H158.435V31.1074H155.899V21.7148H158.435V25.1328H164.888V21.7148H167.424V31.1074H164.888ZM183.078 26.418C183.078 27.2246 182.93 27.9378 182.634 28.5576C182.338 29.1729 181.914 29.6878 181.362 30.1025C180.811 30.5173 180.141 30.8317 179.353 31.0459C178.569 31.2555 177.687 31.3604 176.707 31.3604C175.727 31.3604 174.841 31.2555 174.048 31.0459C173.26 30.8317 172.587 30.5173 172.031 30.1025C171.475 29.6878 171.047 29.1729 170.746 28.5576C170.445 27.9378 170.295 27.2246 170.295 26.418C170.295 25.6113 170.445 24.9004 170.746 24.2852C171.047 23.6654 171.475 23.1481 172.031 22.7334C172.587 22.3187 173.26 22.0065 174.048 21.7969C174.841 21.5827 175.727 21.4756 176.707 21.4756C177.687 21.4756 178.569 21.5827 179.353 21.7969C180.141 22.0065 180.811 22.3187 181.362 22.7334C181.914 23.1481 182.338 23.6654 182.634 24.2852C182.93 24.9004 183.078 25.6113 183.078 26.418ZM180.515 26.418C180.515 26.0671 180.458 25.7184 180.344 25.3721C180.234 25.0212 180.036 24.7067 179.749 24.4287C179.467 24.1507 179.079 23.9251 178.587 23.752C178.095 23.5788 177.468 23.4922 176.707 23.4922C176.197 23.4922 175.748 23.5332 175.36 23.6152C174.973 23.6927 174.638 23.8021 174.356 23.9434C174.073 24.0846 173.836 24.251 173.645 24.4424C173.453 24.6292 173.301 24.832 173.187 25.0508C173.073 25.265 172.991 25.4906 172.94 25.7275C172.895 25.96 172.872 26.1901 172.872 26.418C172.872 26.6504 172.895 26.8851 172.94 27.1221C172.991 27.359 173.073 27.5869 173.187 27.8057C173.301 28.0199 173.453 28.2204 173.645 28.4072C173.836 28.5941 174.073 28.7581 174.356 28.8994C174.638 29.0361 174.973 29.1455 175.36 29.2275C175.748 29.305 176.197 29.3438 176.707 29.3438C177.468 29.3438 178.095 29.2572 178.587 29.084C179.079 28.9108 179.467 28.6852 179.749 28.4072C180.036 28.1292 180.234 27.8171 180.344 27.4707C180.458 27.1198 180.515 26.7689 180.515 26.418ZM194.589 23.8408C194.521 23.818 194.421 23.7884 194.289 23.752C194.161 23.7109 194.011 23.6722 193.837 23.6357C193.664 23.5947 193.473 23.5605 193.263 23.5332C193.058 23.5059 192.846 23.4922 192.627 23.4922C192.172 23.4922 191.746 23.5492 191.349 23.6631C190.957 23.7725 190.59 23.9206 190.249 24.1074C189.907 24.2897 189.588 24.4993 189.292 24.7363C189 24.9688 188.731 25.208 188.485 25.4541V31.1074H185.949V21.7148H188.485V23.2393C188.79 23.0114 189.102 22.7926 189.421 22.583C189.745 22.3688 190.08 22.1797 190.426 22.0156C190.777 21.8516 191.146 21.7217 191.534 21.626C191.921 21.5257 192.331 21.4756 192.764 21.4756C192.928 21.4756 193.095 21.4847 193.263 21.5029C193.436 21.5166 193.603 21.5348 193.762 21.5576C193.926 21.5804 194.079 21.6055 194.22 21.6328C194.361 21.6602 194.485 21.6875 194.589 21.7148V23.8408ZM205.417 24.3604C205.239 24.2738 205.005 24.1758 204.713 24.0664C204.421 23.957 204.091 23.8545 203.722 23.7588C203.352 23.6585 202.951 23.5765 202.519 23.5127C202.086 23.4443 201.641 23.4102 201.185 23.4102C200.821 23.4102 200.509 23.4215 200.249 23.4443C199.994 23.4671 199.777 23.4967 199.6 23.5332C199.426 23.5697 199.287 23.613 199.183 23.6631C199.082 23.7087 199.005 23.7565 198.95 23.8066C198.895 23.8568 198.859 23.9069 198.841 23.957C198.827 24.0072 198.82 24.0527 198.82 24.0938C198.82 24.2305 198.889 24.3512 199.025 24.4561C199.162 24.5563 199.349 24.6475 199.586 24.7295C199.823 24.807 200.099 24.8822 200.413 24.9551C200.727 25.0234 201.06 25.0964 201.411 25.1738C201.767 25.2467 202.131 25.3288 202.505 25.4199C202.883 25.5065 203.248 25.609 203.599 25.7275C203.954 25.846 204.289 25.985 204.603 26.1445C204.918 26.2995 205.194 26.4818 205.431 26.6914C205.668 26.901 205.854 27.1426 205.991 27.416C206.128 27.6895 206.196 28.0016 206.196 28.3525C206.196 28.8037 206.116 29.1911 205.957 29.5146C205.797 29.8382 205.583 30.1117 205.314 30.335C205.05 30.5583 204.742 30.7383 204.392 30.875C204.041 31.0072 203.671 31.1097 203.284 31.1826C202.901 31.2555 202.512 31.3034 202.115 31.3262C201.723 31.349 201.35 31.3604 200.994 31.3604C200.064 31.3604 199.203 31.2829 198.41 31.1279C197.622 30.9775 196.924 30.7884 196.318 30.5605V28.3184C196.943 28.6647 197.654 28.9359 198.451 29.1318C199.253 29.3278 200.11 29.4258 201.021 29.4258C201.559 29.4258 201.997 29.3984 202.334 29.3438C202.676 29.2845 202.942 29.2116 203.134 29.125C203.325 29.0339 203.455 28.9359 203.523 28.8311C203.592 28.7262 203.626 28.626 203.626 28.5303C203.626 28.3799 203.558 28.25 203.421 28.1406C203.284 28.0267 203.097 27.9287 202.86 27.8467C202.623 27.7601 202.348 27.6826 202.033 27.6143C201.719 27.5413 201.384 27.4707 201.028 27.4023C200.677 27.3294 200.315 27.252 199.941 27.1699C199.568 27.0879 199.203 26.9922 198.848 26.8828C198.497 26.7689 198.164 26.639 197.85 26.4932C197.535 26.3428 197.259 26.1673 197.022 25.9668C196.785 25.7617 196.599 25.527 196.462 25.2627C196.325 24.9938 196.257 24.6839 196.257 24.333C196.257 23.9183 196.33 23.5605 196.476 23.2598C196.621 22.959 196.817 22.7038 197.063 22.4941C197.314 22.2799 197.601 22.1068 197.925 21.9746C198.253 21.8424 198.597 21.7399 198.957 21.667C199.317 21.5941 199.682 21.5439 200.051 21.5166C200.42 21.4893 200.771 21.4756 201.103 21.4756C201.468 21.4756 201.842 21.4938 202.225 21.5303C202.612 21.5667 202.992 21.6191 203.366 21.6875C203.74 21.7513 204.1 21.8265 204.446 21.9131C204.797 21.9997 205.121 22.0908 205.417 22.1865V24.3604ZM219.635 30.6426C218.865 30.8978 218.095 31.0801 217.325 31.1895C216.559 31.3034 215.775 31.3604 214.973 31.3604C213.948 31.3604 213.034 31.251 212.232 31.0322C211.434 30.8089 210.762 30.4876 210.215 30.0684C209.668 29.6491 209.251 29.1364 208.964 28.5303C208.677 27.9242 208.534 27.2383 208.534 26.4727C208.534 25.7617 208.677 25.1032 208.964 24.4971C209.256 23.8864 209.666 23.3577 210.195 22.9111C210.728 22.46 211.37 22.109 212.122 21.8584C212.874 21.6032 213.713 21.4756 214.638 21.4756C215.49 21.4756 216.27 21.5918 216.976 21.8242C217.687 22.0521 218.295 22.3916 218.801 22.8428C219.312 23.2939 219.706 23.8499 219.984 24.5107C220.266 25.1715 220.408 25.9326 220.408 26.7939V27.4229H211.152C211.234 27.7191 211.368 27.9902 211.555 28.2363C211.746 28.4824 212.004 28.6921 212.328 28.8652C212.651 29.0384 213.048 29.1729 213.517 29.2686C213.991 29.3643 214.556 29.4121 215.212 29.4121C215.677 29.4121 216.133 29.3848 216.579 29.3301C217.026 29.2708 217.443 29.1956 217.83 29.1045C218.218 29.0088 218.566 28.904 218.876 28.79C219.191 28.6761 219.444 28.5622 219.635 28.4482V30.6426ZM217.885 25.5635C217.862 25.3311 217.792 25.0918 217.673 24.8457C217.559 24.5951 217.377 24.3695 217.126 24.1689C216.876 23.9684 216.548 23.8044 216.142 23.6768C215.736 23.5446 215.231 23.4785 214.624 23.4785C214.055 23.4785 213.563 23.5492 213.148 23.6904C212.733 23.8317 212.384 24.0072 212.102 24.2168C211.824 24.4264 211.607 24.652 211.453 24.8936C211.298 25.1351 211.197 25.3584 211.152 25.5635H217.885ZM227.188 22.4941V31.1074H226.341V22.4941H222.068V21.7148H231.461V22.4941H227.188ZM243.047 30.6152C242.664 30.7337 242.309 30.8363 241.981 30.9229C241.653 31.0049 241.329 31.071 241.01 31.1211C240.691 31.1758 240.365 31.2145 240.032 31.2373C239.704 31.2646 239.342 31.2783 238.946 31.2783C238.025 31.2783 237.193 31.1667 236.45 30.9434C235.708 30.7201 235.074 30.401 234.55 29.9863C234.031 29.5671 233.629 29.0612 233.347 28.4688C233.064 27.8763 232.923 27.2109 232.923 26.4727C232.923 25.7572 233.058 25.1009 233.326 24.5039C233.6 23.9069 233.98 23.3942 234.468 22.9658C234.956 22.5374 235.539 22.2048 236.218 21.9678C236.897 21.7308 237.647 21.6123 238.467 21.6123C239.319 21.6123 240.078 21.7262 240.743 21.9541C241.409 22.182 241.969 22.5078 242.425 22.9316C242.881 23.3555 243.227 23.8704 243.464 24.4766C243.701 25.0781 243.82 25.7572 243.82 26.5137V26.7256H233.805C233.855 27.3089 234.001 27.8353 234.242 28.3047C234.484 28.7741 234.826 29.1729 235.268 29.501C235.714 29.8291 236.261 30.082 236.908 30.2598C237.56 30.4329 238.319 30.5195 239.185 30.5195C239.554 30.5195 239.928 30.4945 240.306 30.4443C240.684 30.3942 241.046 30.3281 241.393 30.2461C241.739 30.1595 242.056 30.0638 242.343 29.959C242.63 29.8496 242.865 29.738 243.047 29.624V30.6152ZM242.979 25.9805C242.947 25.502 242.84 25.0462 242.657 24.6133C242.475 24.1758 242.202 23.7907 241.837 23.458C241.477 23.1253 241.017 22.861 240.456 22.665C239.9 22.4691 239.233 22.3711 238.453 22.3711C237.72 22.3711 237.077 22.4691 236.526 22.665C235.974 22.861 235.507 23.1253 235.124 23.458C234.741 23.7861 234.441 24.1689 234.222 24.6064C234.003 25.0394 233.864 25.4974 233.805 25.9805H242.979ZM257.135 26.4043C257.135 27.0059 257.072 27.5413 256.944 28.0107C256.821 28.4756 256.646 28.8812 256.418 29.2275C256.19 29.5739 255.912 29.8678 255.584 30.1094C255.26 30.3509 254.898 30.5446 254.497 30.6904C254.1 30.8363 253.667 30.9434 253.198 31.0117C252.733 31.0755 252.243 31.1074 251.728 31.1074H246.882V21.7148H251.715C252.485 21.7148 253.2 21.79 253.861 21.9404C254.522 22.0908 255.094 22.3483 255.577 22.7129C256.064 23.0729 256.445 23.5537 256.718 24.1553C256.996 24.7568 257.135 25.5065 257.135 26.4043ZM256.254 26.4043C256.254 25.8939 256.203 25.4427 256.103 25.0508C256.003 24.6589 255.859 24.3193 255.673 24.0322C255.486 23.7406 255.258 23.4967 254.989 23.3008C254.72 23.1048 254.417 22.9476 254.08 22.8291C253.743 22.7061 253.376 22.6195 252.979 22.5693C252.583 22.5192 252.161 22.4941 251.715 22.4941H247.736V30.3213H251.715C252.384 30.3213 252.997 30.262 253.553 30.1436C254.109 30.0205 254.586 29.8109 254.982 29.5146C255.383 29.2139 255.695 28.8128 255.919 28.3115C256.142 27.8057 256.254 27.1699 256.254 26.4043Z" fill="black"/>
<path d="M129.227 14.3796C126.204 14.3796 123.466 15.6078 121.485 17.5941C119.503 19.5799 118.278 22.3232 118.278 25.3536C118.278 28.384 119.503 31.1274 121.485 33.1132C121.746 33.3747 122.02 33.623 122.306 33.8575C122.485 33.7647 122.675 33.6622 122.874 33.5516C122.533 33.2855 122.209 32.999 121.904 32.6931C120.03 30.8149 118.871 28.2199 118.871 25.3536C118.871 22.4874 120.03 19.8924 121.904 18.0142C123.778 16.1355 126.367 14.9736 129.227 14.9736C132.087 14.9736 134.676 16.1355 136.55 18.0137C138.424 19.8919 139.583 22.4869 139.583 25.3531C139.583 27.7432 138.777 29.9441 137.423 31.6984C137.454 31.9747 137.494 32.2398 137.541 32.4932C139.183 30.5737 140.176 28.0797 140.176 25.3531C140.176 22.3227 138.95 19.5793 136.968 17.5936C134.988 15.6078 132.251 14.3796 129.227 14.3796Z" fill="white"/>
<path fill-rule="evenodd" clip-rule="evenodd" d="M128.575 19.7395C128.648 20.441 128.117 20.5017 128.117 20.5017C128.115 19.2292 126.753 18.0209 126.753 18.0209C126.987 19.1593 125.979 19.8879 125.979 19.8879C126.707 19.0931 126.122 18.4486 126.503 17.3602C126.884 16.2717 128.581 19.2608 128.581 19.2608C137.045 21.4311 136.977 30.1782 136.977 30.1782C136.93 33.9244 138.585 36.2777 138.585 36.2777C138.585 36.2777 133.496 36.4608 135.63 28.7216C135.63 28.7216 134.093 32.9924 132.729 33.7378C132.729 33.7378 135.18 29.6673 134.965 27.5189C134.965 27.5189 135.534 21.7334 128.575 19.7395Z" fill="white"/>
<path fill-rule="evenodd" clip-rule="evenodd" d="M123.72 28.1369C124.849 28.2011 126.696 29.313 128.753 26.5788C129.679 31.2392 121.08 34.8574 121.08 34.8574C131.084 35.9122 134.323 29.7433 131.636 25.8529C132.116 29.7545 128.541 33.153 125.017 33.7521C125.017 33.7521 130.288 30.8889 129.212 24.7996C127.865 27.2763 125.778 28.8654 123.19 26.8011C123.19 26.8011 122.927 26.7756 123.195 27.1504C121.778 27.2396 121.234 29.2121 119.869 27.7978C119.869 27.7978 119.9 28.4851 120.746 28.5473C121.593 28.6095 122.59 28.0731 123.72 28.1374L123.72 28.1369Z" fill="white"/>
<path fill-rule="evenodd" clip-rule="evenodd" d="M127.54 20.8631C127.54 20.8631 125.459 20.7576 125.117 22.1973C125.117 22.1973 125.016 22.5919 123.854 23.1645C123.854 23.1645 121.187 25.0401 120.116 25.4689C120.373 25.0911 121.288 25.0911 123.669 22.8897C123.669 22.8897 125.872 20.47 126.708 20.3589C127.545 20.2477 127.54 20.8631 127.54 20.8631Z" fill="white"/>
<path fill-rule="evenodd" clip-rule="evenodd" d="M124.951 23.7655C124.9 23.6126 125.46 23.0308 125.663 22.9141C125.866 22.7973 126.579 22.5419 126.63 22.6439C126.68 22.7459 126.245 23.3668 125.98 23.4642C125.714 23.5616 125.002 23.9185 124.951 23.7655Z" fill="white"/>
<line x1="30" y1="17" x2="56" y2="17" stroke="black" stroke-width="2" stroke-linecap="round"/>
<line x1="30" y1="24.5" x2="56" y2="24.5" stroke="black" stroke-width="2" stroke-linecap="round"/>
<line x1="30" y1="32" x2="56" y2="32" stroke="black" stroke-width="2" stroke-linecap="round"/>
<rect x="27.5" y="54.5" width="322" height="46" rx="23" fill="white"/>
<rect x="27.5" y="54.5" width="322" height="46" rx="23" stroke="black"/>
<path d="M50.5 83C54.6421 83 58 79.6421 58 75.5C58 71.3579 54.6421 68 50.5 68C46.3579 68 43 71.3579 43 75.5C43 79.6421 46.3579 83 50.5 83Z" stroke="black" stroke-width="1.5" stroke-linecap="round" stroke-linejoin="round"/>
<path d="M56 81L62 87" stroke="black" stroke-width="1.5" stroke-linecap="round" stroke-linejoin="round"/>
<line x1="78.25" y1="64" x2="78.25" y2="91" stroke="black" stroke-width="0.5"/>
<path d="M95.19 82.5V72.56H99.446C99.8847 72.56 100.286 72.6533 100.65 72.84C101.014 73.0173 101.331 73.26 101.602 73.568C101.873 73.8667 102.083 74.2073 102.232 74.59C102.381 74.9633 102.456 75.346 102.456 75.738C102.456 76.1953 102.367 76.6293 102.19 77.04C102.022 77.4507 101.779 77.8007 101.462 78.09C101.154 78.3793 100.79 78.58 100.37 78.692L102.778 82.5H101.35L99.082 78.93H96.45V82.5H95.19ZM96.45 77.81H99.46C99.8053 77.81 100.104 77.7167 100.356 77.53C100.617 77.334 100.818 77.0773 100.958 76.76C101.107 76.4427 101.182 76.102 101.182 75.738C101.182 75.3647 101.098 75.024 100.93 74.716C100.762 74.3987 100.543 74.1467 100.272 73.96C100.001 73.7733 99.7027 73.68 99.376 73.68H96.45V77.81ZM107.197 82.64C106.646 82.64 106.142 82.542 105.685 82.346C105.237 82.1407 104.845 81.8653 104.509 81.52C104.182 81.1653 103.925 80.7593 103.739 80.302C103.561 79.8447 103.473 79.3593 103.473 78.846C103.473 78.1553 103.631 77.5253 103.949 76.956C104.266 76.3867 104.705 75.9293 105.265 75.584C105.834 75.2387 106.483 75.066 107.211 75.066C107.948 75.066 108.587 75.2433 109.129 75.598C109.679 75.9433 110.104 76.4007 110.403 76.97C110.711 77.53 110.865 78.1367 110.865 78.79C110.865 78.8833 110.86 78.9767 110.851 79.07C110.851 79.154 110.846 79.2193 110.837 79.266H104.775C104.812 79.742 104.943 80.1667 105.167 80.54C105.4 80.904 105.699 81.1933 106.063 81.408C106.427 81.6133 106.819 81.716 107.239 81.716C107.687 81.716 108.107 81.604 108.499 81.38C108.9 81.156 109.175 80.862 109.325 80.498L110.389 80.792C110.23 81.1467 109.992 81.464 109.675 81.744C109.367 82.024 108.998 82.2433 108.569 82.402C108.149 82.5607 107.691 82.64 107.197 82.64ZM104.733 78.412H109.717C109.679 77.936 109.544 77.516 109.311 77.152C109.077 76.788 108.779 76.5033 108.415 76.298C108.051 76.0927 107.649 75.99 107.211 75.99C106.781 75.99 106.385 76.0927 106.021 76.298C105.657 76.5033 105.358 76.788 105.125 77.152C104.901 77.516 104.77 77.936 104.733 78.412ZM115.468 82.64C114.918 82.64 114.414 82.542 113.956 82.346C113.508 82.1407 113.116 81.8607 112.78 81.506C112.454 81.1513 112.197 80.7453 112.01 80.288C111.833 79.8307 111.744 79.3453 111.744 78.832C111.744 78.1413 111.898 77.5113 112.206 76.942C112.514 76.3727 112.948 75.92 113.508 75.584C114.068 75.2387 114.717 75.066 115.454 75.066C116.173 75.066 116.798 75.2293 117.33 75.556C117.872 75.8733 118.273 76.3027 118.534 76.844L117.33 77.222C117.144 76.8767 116.882 76.6107 116.546 76.424C116.21 76.228 115.837 76.13 115.426 76.13C114.978 76.13 114.568 76.2467 114.194 76.48C113.83 76.7133 113.541 77.0353 113.326 77.446C113.112 77.8473 113.004 78.3093 113.004 78.832C113.004 79.3453 113.112 79.812 113.326 80.232C113.55 80.6427 113.844 80.9693 114.208 81.212C114.582 81.4547 114.992 81.576 115.44 81.576C115.73 81.576 116.005 81.5247 116.266 81.422C116.537 81.3193 116.77 81.184 116.966 81.016C117.172 80.8387 117.312 80.6473 117.386 80.442L118.59 80.806C118.441 81.1607 118.212 81.478 117.904 81.758C117.606 82.0287 117.246 82.2433 116.826 82.402C116.416 82.5607 115.963 82.64 115.468 82.64ZM126.328 82.5H125.096V78.412C125.096 77.6653 124.961 77.1053 124.69 76.732C124.429 76.3587 124.051 76.172 123.556 76.172C123.239 76.172 122.917 76.256 122.59 76.424C122.273 76.592 121.993 76.8207 121.75 77.11C121.508 77.39 121.33 77.7167 121.218 78.09V82.5H119.986V72.28H121.218V76.76C121.508 76.2373 121.9 75.8267 122.394 75.528C122.898 75.22 123.44 75.066 124.018 75.066C124.457 75.066 124.821 75.1453 125.11 75.304C125.409 75.4533 125.647 75.668 125.824 75.948C126.002 76.228 126.128 76.5547 126.202 76.928C126.286 77.292 126.328 77.6933 126.328 78.132V82.5ZM131.478 82.64C130.927 82.64 130.423 82.542 129.966 82.346C129.518 82.1407 129.126 81.8653 128.79 81.52C128.463 81.1653 128.207 80.7593 128.02 80.302C127.843 79.8447 127.754 79.3593 127.754 78.846C127.754 78.1553 127.913 77.5253 128.23 76.956C128.547 76.3867 128.986 75.9293 129.546 75.584C130.115 75.2387 130.764 75.066 131.492 75.066C132.229 75.066 132.869 75.2433 133.41 75.598C133.961 75.9433 134.385 76.4007 134.684 76.97C134.992 77.53 135.146 78.1367 135.146 78.79C135.146 78.8833 135.141 78.9767 135.132 79.07C135.132 79.154 135.127 79.2193 135.118 79.266H129.056C129.093 79.742 129.224 80.1667 129.448 80.54C129.681 80.904 129.98 81.1933 130.344 81.408C130.708 81.6133 131.1 81.716 131.52 81.716C131.968 81.716 132.388 81.604 132.78 81.38C133.181 81.156 133.457 80.862 133.606 80.498L134.67 80.792C134.511 81.1467 134.273 81.464 133.956 81.744C133.648 82.024 133.279 82.2433 132.85 82.402C132.43 82.5607 131.973 82.64 131.478 82.64ZM129.014 78.412H133.998C133.961 77.936 133.825 77.516 133.592 77.152C133.359 76.788 133.06 76.5033 132.696 76.298C132.332 76.0927 131.931 75.99 131.492 75.99C131.063 75.99 130.666 76.0927 130.302 76.298C129.938 76.5033 129.639 76.788 129.406 77.152C129.182 77.516 129.051 77.936 129.014 78.412ZM140.379 76.27C139.763 76.2793 139.217 76.438 138.741 76.746C138.275 77.0447 137.943 77.46 137.747 77.992V82.5H136.515V75.192H137.663V76.886C137.915 76.382 138.247 75.976 138.657 75.668C139.077 75.3507 139.516 75.1733 139.973 75.136C140.067 75.136 140.146 75.136 140.211 75.136C140.277 75.136 140.333 75.1407 140.379 75.15V76.27ZM144.671 82.64C144.121 82.64 143.617 82.542 143.159 82.346C142.711 82.1407 142.319 81.8607 141.983 81.506C141.657 81.1513 141.4 80.7453 141.213 80.288C141.036 79.8307 140.947 79.3453 140.947 78.832C140.947 78.1413 141.101 77.5113 141.409 76.942C141.717 76.3727 142.151 75.92 142.711 75.584C143.271 75.2387 143.92 75.066 144.657 75.066C145.376 75.066 146.001 75.2293 146.533 75.556C147.075 75.8733 147.476 76.3027 147.737 76.844L146.533 77.222C146.347 76.8767 146.085 76.6107 145.749 76.424C145.413 76.228 145.04 76.13 144.629 76.13C144.181 76.13 143.771 76.2467 143.397 76.48C143.033 76.7133 142.744 77.0353 142.529 77.446C142.315 77.8473 142.207 78.3093 142.207 78.832C142.207 79.3453 142.315 79.812 142.529 80.232C142.753 80.6427 143.047 80.9693 143.411 81.212C143.785 81.4547 144.195 81.576 144.643 81.576C144.933 81.576 145.208 81.5247 145.469 81.422C145.74 81.3193 145.973 81.184 146.169 81.016C146.375 80.8387 146.515 80.6473 146.589 80.442L147.793 80.806C147.644 81.1607 147.415 81.478 147.107 81.758C146.809 82.0287 146.449 82.2433 146.029 82.402C145.619 82.5607 145.166 82.64 144.671 82.64ZM155.531 82.5H154.299V78.412C154.299 77.6653 154.164 77.1053 153.893 76.732C153.632 76.3587 153.254 76.172 152.759 76.172C152.442 76.172 152.12 76.256 151.793 76.424C151.476 76.592 151.196 76.8207 150.953 77.11C150.711 77.39 150.533 77.7167 150.421 78.09V82.5H149.189V72.28H150.421V76.76C150.711 76.2373 151.103 75.8267 151.597 75.528C152.101 75.22 152.643 75.066 153.221 75.066C153.66 75.066 154.024 75.1453 154.313 75.304C154.612 75.4533 154.85 75.668 155.027 75.948C155.205 76.228 155.331 76.5547 155.405 76.928C155.489 77.292 155.531 77.6933 155.531 78.132V82.5ZM160.681 82.64C160.13 82.64 159.626 82.542 159.169 82.346C158.721 82.1407 158.329 81.8653 157.993 81.52C157.666 81.1653 157.41 80.7593 157.223 80.302C157.046 79.8447 156.957 79.3593 156.957 78.846C156.957 78.1553 157.116 77.5253 157.433 76.956C157.75 76.3867 158.189 75.9293 158.749 75.584C159.318 75.2387 159.967 75.066 160.695 75.066C161.432 75.066 162.072 75.2433 162.613 75.598C163.164 75.9433 163.588 76.4007 163.887 76.97C164.195 77.53 164.349 78.1367 164.349 78.79C164.349 78.8833 164.344 78.9767 164.335 79.07C164.335 79.154 164.33 79.2193 164.321 79.266H158.259C158.296 79.742 158.427 80.1667 158.651 80.54C158.884 80.904 159.183 81.1933 159.547 81.408C159.911 81.6133 160.303 81.716 160.723 81.716C161.171 81.716 161.591 81.604 161.983 81.38C162.384 81.156 162.66 80.862 162.809 80.498L163.873 80.792C163.714 81.1467 163.476 81.464 163.159 81.744C162.851 82.024 162.482 82.2433 162.053 82.402C161.633 82.5607 161.176 82.64 160.681 82.64ZM158.217 78.412H163.201C163.164 77.936 163.028 77.516 162.795 77.152C162.562 76.788 162.263 76.5033 161.899 76.298C161.535 76.0927 161.134 75.99 160.695 75.99C160.266 75.99 159.869 76.0927 159.505 76.298C159.141 76.5033 158.842 76.788 158.609 77.152C158.385 77.516 158.254 77.936 158.217 78.412ZM169.583 76.27C168.967 76.2793 168.421 76.438 167.945 76.746C167.478 77.0447 167.147 77.46 166.951 77.992V82.5H165.719V75.192H166.867V76.886C167.119 76.382 167.45 75.976 167.861 75.668C168.281 75.3507 168.719 75.1733 169.177 75.136C169.27 75.136 169.349 75.136 169.415 75.136C169.48 75.136 169.536 75.1407 169.583 75.15V76.27ZM173.947 79.574V75.192H175.179V79.336C175.179 80.0827 175.31 80.6427 175.571 81.016C175.833 81.3893 176.22 81.576 176.733 81.576C177.069 81.576 177.391 81.506 177.699 81.366C178.017 81.2167 178.301 81.0067 178.553 80.736C178.805 80.4653 179.001 80.1433 179.141 79.77V75.192H180.373V81.1C180.373 81.2493 180.401 81.3613 180.457 81.436C180.523 81.5013 180.625 81.5387 180.765 81.548V82.5C180.625 82.5187 180.513 82.528 180.429 82.528C180.355 82.5373 180.28 82.542 180.205 82.542C179.972 82.542 179.771 82.472 179.603 82.332C179.435 82.1827 179.347 82.0007 179.337 81.786L179.309 80.932C178.992 81.4733 178.563 81.8933 178.021 82.192C177.489 82.4907 176.906 82.64 176.271 82.64C175.506 82.64 174.927 82.3833 174.535 81.87C174.143 81.3473 173.947 80.582 173.947 79.574ZM188.768 82.5H187.536V78.412C187.536 77.6373 187.414 77.0727 187.172 76.718C186.938 76.354 186.579 76.172 186.094 76.172C185.758 76.172 185.422 76.256 185.086 76.424C184.759 76.592 184.465 76.8207 184.204 77.11C183.952 77.39 183.77 77.7167 183.658 78.09V82.5H182.426V75.192H183.546V76.76C183.742 76.4147 183.994 76.116 184.302 75.864C184.61 75.612 184.96 75.416 185.352 75.276C185.744 75.136 186.154 75.066 186.584 75.066C187.004 75.066 187.354 75.1453 187.634 75.304C187.923 75.4533 188.147 75.668 188.306 75.948C188.474 76.2187 188.59 76.5407 188.656 76.914C188.73 77.2873 188.768 77.6933 188.768 78.132V82.5ZM193.65 80.386C193.65 79.9193 193.781 79.518 194.042 79.182C194.313 78.8367 194.682 78.5707 195.148 78.384C195.615 78.1973 196.156 78.104 196.772 78.104C197.099 78.104 197.444 78.132 197.808 78.188C198.172 78.2347 198.494 78.3093 198.774 78.412V77.88C198.774 77.32 198.606 76.8813 198.27 76.564C197.934 76.2373 197.458 76.074 196.842 76.074C196.441 76.074 196.054 76.1487 195.68 76.298C195.316 76.438 194.929 76.6433 194.518 76.914L194.07 76.046C194.546 75.7193 195.022 75.4767 195.498 75.318C195.974 75.15 196.469 75.066 196.982 75.066C197.916 75.066 198.653 75.3273 199.194 75.85C199.736 76.3633 200.006 77.082 200.006 78.006V81.1C200.006 81.2493 200.034 81.3613 200.09 81.436C200.156 81.5013 200.258 81.5387 200.398 81.548V82.5C200.277 82.5187 200.17 82.5327 200.076 82.542C199.992 82.5513 199.922 82.556 199.866 82.556C199.577 82.556 199.358 82.4767 199.208 82.318C199.068 82.1593 198.989 81.9913 198.97 81.814L198.942 81.352C198.625 81.7627 198.21 82.08 197.696 82.304C197.183 82.528 196.674 82.64 196.17 82.64C195.685 82.64 195.251 82.542 194.868 82.346C194.486 82.1407 194.187 81.87 193.972 81.534C193.758 81.1887 193.65 80.806 193.65 80.386ZM198.41 80.904C198.522 80.7733 198.611 80.6427 198.676 80.512C198.742 80.372 198.774 80.2553 198.774 80.162V79.252C198.485 79.14 198.182 79.056 197.864 79C197.547 78.9347 197.234 78.902 196.926 78.902C196.301 78.902 195.792 79.028 195.4 79.28C195.018 79.5227 194.826 79.8587 194.826 80.288C194.826 80.5213 194.887 80.75 195.008 80.974C195.139 81.1887 195.326 81.366 195.568 81.506C195.82 81.646 196.128 81.716 196.492 81.716C196.875 81.716 197.239 81.6413 197.584 81.492C197.93 81.3333 198.205 81.1373 198.41 80.904ZM205.84 76.27C205.224 76.2793 204.678 76.438 204.202 76.746C203.736 77.0447 203.404 77.46 203.208 77.992V82.5H201.976V75.192H203.124V76.886C203.376 76.382 203.708 75.976 204.118 75.668C204.538 75.3507 204.977 75.1733 205.434 75.136C205.528 75.136 205.607 75.136 205.672 75.136C205.738 75.136 205.794 75.1407 205.84 75.15V76.27ZM210.842 82.136C210.74 82.1827 210.6 82.2433 210.422 82.318C210.245 82.3927 210.04 82.458 209.806 82.514C209.573 82.57 209.326 82.598 209.064 82.598C208.766 82.598 208.49 82.5467 208.238 82.444C207.986 82.332 207.786 82.164 207.636 81.94C207.487 81.7067 207.412 81.4173 207.412 81.072V76.158H206.418V75.192H207.412V72.756H208.644V75.192H210.282V76.158H208.644V80.694C208.663 80.9553 208.752 81.1513 208.91 81.282C209.069 81.4033 209.256 81.464 209.47 81.464C209.713 81.464 209.937 81.422 210.142 81.338C210.348 81.254 210.483 81.1933 210.548 81.156L210.842 82.136ZM211.984 82.5V75.192H213.216V82.5H211.984ZM211.984 73.82V72.28H213.216V73.82H211.984ZM218.445 82.64C217.894 82.64 217.39 82.542 216.933 82.346C216.485 82.1407 216.093 81.8607 215.757 81.506C215.43 81.1513 215.173 80.7453 214.987 80.288C214.809 79.8307 214.721 79.3453 214.721 78.832C214.721 78.1413 214.875 77.5113 215.183 76.942C215.491 76.3727 215.925 75.92 216.485 75.584C217.045 75.2387 217.693 75.066 218.431 75.066C219.149 75.066 219.775 75.2293 220.307 75.556C220.848 75.8733 221.249 76.3027 221.511 76.844L220.307 77.222C220.12 76.8767 219.859 76.6107 219.523 76.424C219.187 76.228 218.813 76.13 218.403 76.13C217.955 76.13 217.544 76.2467 217.171 76.48C216.807 76.7133 216.517 77.0353 216.303 77.446C216.088 77.8473 215.981 78.3093 215.981 78.832C215.981 79.3453 216.088 79.812 216.303 80.232C216.527 80.6427 216.821 80.9693 217.185 81.212C217.558 81.4547 217.969 81.576 218.417 81.576C218.706 81.576 218.981 81.5247 219.243 81.422C219.513 81.3193 219.747 81.184 219.943 81.016C220.148 80.8387 220.288 80.6473 220.363 80.442L221.567 80.806C221.417 81.1607 221.189 81.478 220.881 81.758C220.582 82.0287 220.223 82.2433 219.803 82.402C219.392 82.5607 218.939 82.64 218.445 82.64ZM222.991 72.28H224.223V80.61C224.223 81.0113 224.279 81.2587 224.391 81.352C224.503 81.4453 224.638 81.492 224.797 81.492C224.993 81.492 225.179 81.4733 225.357 81.436C225.534 81.3893 225.683 81.3427 225.805 81.296L226.001 82.304C225.795 82.388 225.553 82.458 225.273 82.514C224.993 82.57 224.745 82.598 224.531 82.598C224.055 82.598 223.677 82.4627 223.397 82.192C223.126 81.9213 222.991 81.5433 222.991 81.058V72.28ZM230.203 82.64C229.652 82.64 229.148 82.542 228.691 82.346C228.243 82.1407 227.851 81.8653 227.515 81.52C227.188 81.1653 226.931 80.7593 226.745 80.302C226.567 79.8447 226.479 79.3593 226.479 78.846C226.479 78.1553 226.637 77.5253 226.955 76.956C227.272 76.3867 227.711 75.9293 228.271 75.584C228.84 75.2387 229.489 75.066 230.217 75.066C230.954 75.066 231.593 75.2433 232.135 75.598C232.685 75.9433 233.11 76.4007 233.409 76.97C233.717 77.53 233.871 78.1367 233.871 78.79C233.871 78.8833 233.866 78.9767 233.857 79.07C233.857 79.154 233.852 79.2193 233.843 79.266H227.781C227.818 79.742 227.949 80.1667 228.173 80.54C228.406 80.904 228.705 81.1933 229.069 81.408C229.433 81.6133 229.825 81.716 230.245 81.716C230.693 81.716 231.113 81.604 231.505 81.38C231.906 81.156 232.181 80.862 232.331 80.498L233.395 80.792C233.236 81.1467 232.998 81.464 232.681 81.744C232.373 82.024 232.004 82.2433 231.575 82.402C231.155 82.5607 230.697 82.64 230.203 82.64ZM227.739 78.412H232.723C232.685 77.936 232.55 77.516 232.317 77.152C232.083 76.788 231.785 76.5033 231.421 76.298C231.057 76.0927 230.655 75.99 230.217 75.99C229.787 75.99 229.391 76.0927 229.027 76.298C228.663 76.5033 228.364 76.788 228.131 77.152C227.907 77.516 227.776 77.936 227.739 78.412ZM241.973 82.64C241.422 82.64 240.923 82.542 240.475 82.346C240.027 82.1407 239.64 81.8653 239.313 81.52C238.986 81.1653 238.734 80.7593 238.557 80.302C238.38 79.8447 238.291 79.364 238.291 78.86C238.291 78.3467 238.38 77.8613 238.557 77.404C238.734 76.9467 238.986 76.5453 239.313 76.2C239.64 75.8453 240.027 75.57 240.475 75.374C240.932 75.1687 241.436 75.066 241.987 75.066C242.528 75.066 243.023 75.1687 243.471 75.374C243.919 75.57 244.306 75.8453 244.633 76.2C244.969 76.5453 245.226 76.9467 245.403 77.404C245.58 77.8613 245.669 78.3467 245.669 78.86C245.669 79.364 245.58 79.8447 245.403 80.302C245.226 80.7593 244.974 81.1653 244.647 81.52C244.32 81.8653 243.928 82.1407 243.471 82.346C243.023 82.542 242.524 82.64 241.973 82.64ZM239.551 78.874C239.551 79.378 239.658 79.8353 239.873 80.246C240.097 80.6567 240.391 80.9833 240.755 81.226C241.119 81.4593 241.525 81.576 241.973 81.576C242.421 81.576 242.827 81.4547 243.191 81.212C243.564 80.9693 243.858 80.6427 244.073 80.232C244.297 79.812 244.409 79.35 244.409 78.846C244.409 78.342 244.297 77.8847 244.073 77.474C243.858 77.0633 243.564 76.7367 243.191 76.494C242.827 76.2513 242.421 76.13 241.973 76.13C241.525 76.13 241.119 76.256 240.755 76.508C240.391 76.7507 240.097 77.0773 239.873 77.488C239.658 77.8987 239.551 78.3607 239.551 78.874ZM247.092 79.574V75.192H248.324V79.336C248.324 80.0827 248.455 80.6427 248.716 81.016C248.977 81.3893 249.365 81.576 249.878 81.576C250.214 81.576 250.536 81.506 250.844 81.366C251.161 81.2167 251.446 81.0067 251.698 80.736C251.95 80.4653 252.146 80.1433 252.286 79.77V75.192H253.518V81.1C253.518 81.2493 253.546 81.3613 253.602 81.436C253.667 81.5013 253.77 81.5387 253.91 81.548V82.5C253.77 82.5187 253.658 82.528 253.574 82.528C253.499 82.5373 253.425 82.542 253.35 82.542C253.117 82.542 252.916 82.472 252.748 82.332C252.58 82.1827 252.491 82.0007 252.482 81.786L252.454 80.932C252.137 81.4733 251.707 81.8933 251.166 82.192C250.634 82.4907 250.051 82.64 249.416 82.64C248.651 82.64 248.072 82.3833 247.68 81.87C247.288 81.3473 247.092 80.582 247.092 79.574ZM259.041 79.574V75.192H260.273V79.336C260.273 80.0827 260.404 80.6427 260.665 81.016C260.927 81.3893 261.314 81.576 261.827 81.576C262.163 81.576 262.485 81.506 262.793 81.366C263.111 81.2167 263.395 81.0067 263.647 80.736C263.899 80.4653 264.095 80.1433 264.235 79.77V75.192H265.467V81.1C265.467 81.2493 265.495 81.3613 265.551 81.436C265.617 81.5013 265.719 81.5387 265.859 81.548V82.5C265.719 82.5187 265.607 82.528 265.523 82.528C265.449 82.5373 265.374 82.542 265.299 82.542C265.066 82.542 264.865 82.472 264.697 82.332C264.529 82.1827 264.441 82.0007 264.431 81.786L264.403 80.932C264.086 81.4733 263.657 81.8933 263.115 82.192C262.583 82.4907 262 82.64 261.365 82.64C260.6 82.64 260.021 82.3833 259.629 81.87C259.237 81.3473 259.041 80.582 259.041 79.574ZM273.861 82.5H272.629V78.412C272.629 77.6373 272.508 77.0727 272.265 76.718C272.032 76.354 271.673 76.172 271.187 76.172C270.851 76.172 270.515 76.256 270.179 76.424C269.853 76.592 269.559 76.8207 269.297 77.11C269.045 77.39 268.863 77.7167 268.751 78.09V82.5H267.519V75.192H268.639V76.76C268.835 76.4147 269.087 76.116 269.395 75.864C269.703 75.612 270.053 75.416 270.445 75.276C270.837 75.136 271.248 75.066 271.677 75.066C272.097 75.066 272.447 75.1453 272.727 75.304C273.017 75.4533 273.241 75.668 273.399 75.948C273.567 76.2187 273.684 76.5407 273.749 76.914C273.824 77.2873 273.861 77.6933 273.861 78.132V82.5ZM279.22 82.5V80.932H280.256V82.5H279.22ZM282.05 82.5V80.932H283.086V82.5H282.05ZM284.88 82.5V80.932H285.916V82.5H284.88Z" fill="#D9D9D9"/>
<path d="M324 78.9998H334" stroke="black" stroke-width="1.5" stroke-linecap="round" stroke-linejoin="round"/>
<path d="M330 83L334 79L330 75" stroke="black" stroke-width="1.5" stroke-linecap="round" stroke-linejoin="round"/>
<path d="M344 20C349.5 20 350 21 350 28C350 35 349.5 36 344 36" stroke="black" stroke-width="1.5" stroke-linecap="round" stroke-linejoin="round"/>
<path d="M334 28L345 28" stroke="black" stroke-width="1.5" stroke-linecap="round" stroke-linejoin="round"/>
<path d="M341 32L345 28L341 24" stroke="black" stroke-width="1.5" stroke-linecap="round" stroke-linejoin="round"/>
</svg>
