<svg width="17" height="17" viewBox="0 0 17 17" fill="none" xmlns="http://www.w3.org/2000/svg">
<path d="M3.79938 3.78191C3.79938 3.34214 3.76745 2.92778 3.80529 2.52051C3.93125 1.15272 5.11689 0.0385018 6.48526 0.0166312C7.82761 -0.00464824 9.17055 -0.00642152 10.5129 0.0166312C12.006 0.0426394 13.1988 1.30758 13.2236 2.85035C13.2283 3.15121 13.2242 3.45149 13.2242 3.78132C13.4631 3.78132 13.6819 3.77896 13.9001 3.78132C14.3791 3.78723 14.8616 3.763 15.3365 3.81088C16.2832 3.90545 16.9857 4.6987 16.9946 5.65864C17.0047 6.76458 16.9976 7.87052 16.9976 8.97705C16.9976 10.9755 16.9976 12.9735 16.9976 14.9719C16.9976 16.2085 16.2028 16.9994 14.961 17C10.653 17 6.34511 17 2.03659 17C0.796539 17 0 16.2073 0 14.9719C0 11.9189 0 8.86652 0 5.81351C0 4.57812 0.796539 3.78369 2.0354 3.78132C2.6025 3.78073 3.17078 3.78191 3.79938 3.78191ZM5.67867 9.44047V11.3408H7.56269V13.2152H9.4402V11.3355H11.3201V9.44225H9.43251V7.58089H7.55382V9.44047H5.67867ZM11.3284 3.77305C11.3284 3.41839 11.3443 3.08678 11.3248 2.75695C11.2964 2.2888 10.9079 1.91109 10.4354 1.90755C9.14512 1.8975 7.85481 1.89809 6.5645 1.90755C6.11508 1.9105 5.73248 2.2427 5.68517 2.68957C5.64733 3.04422 5.67749 3.40598 5.67749 3.77305H11.3284Z" fill="#4D7A4C"/>
</svg>
