<?xml version="1.0" encoding="UTF-8"?>
<svg id="Calque_1" data-name="Calque 1" xmlns="http://www.w3.org/2000/svg" version="1.1" viewBox="0 0 512 512">
  <defs>
    <style>
      .cls-1, .cls-2 {
        fill: #000;
        stroke-width: 0px;
      }

      .cls-2 {
        fill-rule: evenodd;
      }
    </style>
  </defs>
  <g>
    <path class="cls-2" d="M244.7,117.3c1.6,15.5-10.1,16.8-10.1,16.8,0-28.1-30.1-54.8-30.1-54.8,5.2,25.1-17.1,41.2-17.1,41.2,16.1-17.6,3.1-31.8,11.6-55.8,8.4-24,45.9,42,45.9,42,186.9,47.9,189.1,176.6,185.4,241.1-3.6,64.5-40.5,109.9-40.5,109.9,0,0,35.1-106.6,10.7-142.1,7.1,106.5-105.8,177.7-126.1,185.2,93.3-105,108.4-183.8,111.4-211.8,3-28,12.6-127.8-141.1-171.8Z"/>
    <path class="cls-2" d="M137.5,302.8c24.9,1.4,65.7,26,111.2-34.4,20.4,102.9-163.3,170.6-163.3,170.6,246.6,56,286.3-100.7,227-186.6,10.6,86.2-68.4,161.2-146.2,174.5,0,0,116.4-63.2,92.7-197.7-29.7,54.7-75.8,89.8-133,44.2,0,0-5.8-.6.1,7.7-31.3,2-43.3,45.5-73.5,14.3,0,0,.7,15.2,19.4,16.6,18.7,1.4,40.7-10.5,65.7-9.1h0Z"/>
    <path class="cls-2" d="M221.8,142.1s-45.9-2.3-53.5,29.5c0,0-2.2,8.7-27.9,21.4,0,0-58.9,41.4-82.6,50.9,5.7-8.3,25.9-8.3,78.5-57,0,0,48.6-53.4,67.1-55.9,18.5-2.5,18.4,11.1,18.4,11.1Z"/>
    <path class="cls-2" d="M164.6,206.2c-1.1-3.4,11.2-16.2,15.7-18.8,4.5-2.6,20.2-8.2,21.3-6,1.1,2.3-8.5,16-14.4,18.1-5.9,2.2-21.6,10-22.7,6.7Z"/>
    <path class="cls-2" d="M52.8,278.3c-3.2-9.4,16.2-33,0-22.9-16.2,10.1,3.2,32.3,0,22.9Z"/>
  </g>
  <path class="cls-1" d="M486,278.1c1-21.1-.8-42.2-5-62.7-.4-2.6-1.1-5.1-1.8-7.6-.7-2.5-1.2-5.1-2-7.6-1.6-5-2.9-10.1-4.8-14.9-3.4-9.9-7.7-19.4-12.3-28.8l-3.7-6.9c-1.2-2.3-2.6-4.5-3.9-6.8-2.6-4.5-5.6-8.8-8.4-13.2-1.5-2.2-3.1-4.2-4.6-6.3s-3.1-4.2-4.7-6.2l-4.9-6.1-7.8-8.7-2.7-2.8c-1.8-1.9-3.6-3.8-5.4-5.6-3.8-3.5-7.5-7.2-11.5-10.5-7.8-6.9-16.2-12.9-24.9-18.7l-6.6-4.1c-2.2-1.4-4.5-2.6-6.7-3.9-4.5-2.6-9.2-4.8-13.8-7.2-2.3-1.1-4.7-2.1-7.1-3.2l-3.6-1.6c-1.2-.5-2.4-.9-3.6-1.4l-7.2-2.8-7.4-2.5-3.7-1.2-3.7-1.1-7.5-2.1-7.6-1.7-3.8-.9-3.8-.7-7.6-1.3-7.7-1-3.8-.5c-1.3-.1-2.6-.2-3.9-.3l-7.7-.6c-10.3-.4-20.7-.4-31,.5-5.2.3-10.3,1.1-15.4,1.7l-1.9.2-1.9.3-3.8.7-3.8.7c-1.3.2-2.5.4-3.8.8-5,1.2-10.1,2.2-15.1,3.7l-3.7,1.1-1.9.5-1.8.6-7.4,2.5c-9.7,3.6-19.3,7.5-28.5,12.3-4.7,2.2-9.1,5-13.6,7.5-2.2,1.3-4.4,2.8-6.6,4.1l-3.3,2.1c-1.1.7-2.1,1.5-3.2,2.2l-6.4,4.5-6.1,4.7c-1,.8-2.1,1.6-3.1,2.4l-2.9,2.5c-2,1.7-4,3.3-5.9,5.1-30.9,27.7-54.1,63.8-67.1,103.4l-2.2,7.5c-.4,1.2-.8,2.5-1.1,3.8l-.9,3.8c-.6,2.5-1.3,5.1-1.8,7.6l-1.5,7.7c-.2,1.3-.5,2.6-.7,3.8l-.5,3.9-1.1,7.8-.7,7.8-.4,3.9-.2,3.9-.3,7.8c0,2.6,0,5.2,0,7.9v3.9c0,1.3.2,2.6.2,3.9l.4,7.8.8,7.8.4,3.9.6,3.9,1.2,7.8,1.5,7.7c.3,1.3.5,2.6.8,3.9l1,3.8c.7,2.6,1.2,5.1,2,7.7,1.5,5,2.9,10.1,4.8,15.1,3.4,10,7.7,19.7,12.4,29.2,9.5,18.9,21.6,36.6,35.7,52.7-30.7-29.9-53-68.6-63.7-110.6l-2-7.9-1.6-8-.8-4-.6-4-1.1-8.1-.7-8.1c-.1-1.3-.3-2.7-.4-4.1l-.2-4.1c-.1-2.7-.3-5.4-.3-8.2v-8.2s0-4.1,0-4.1l.2-4.1.5-8.2.9-8.1.4-4.1c.2-1.3.4-2.7.7-4l1.3-8.1c.5-2.7,1.1-5.3,1.7-8l.9-4c.3-1.3.7-2.7,1-4l2.1-7.9c.8-2.6,1.7-5.2,2.5-7.8l1.3-3.9c.4-1.3,1-2.6,1.4-3.8l2.9-7.7,3.3-7.5,1.7-3.8,1.8-3.7c1.2-2.5,2.4-4.9,3.7-7.4,2.7-4.8,5.3-9.6,8.3-14.2,5.7-9.4,12.3-18.2,19.2-26.7l5.4-6.3c1.8-2.1,3.7-4,5.6-6.1,3.7-4.1,7.7-7.8,11.7-11.7,16.2-14.9,34.2-27.9,53.8-37.9,9.7-5.2,19.9-9.4,30.2-13.3l7.8-2.7,2-.7,2-.6,4-1.1c5.3-1.6,10.7-2.8,16-4,21.6-4.7,43.7-6.2,65.7-5.1l8.2.6c1.4.1,2.7.2,4.1.4l4.1.5,8.2,1.1,8.1,1.5,4.1.7,4,.9,8,1.9,7.9,2.3,4,1.1,3.9,1.3,7.8,2.7,7.7,3c1.3.5,2.6,1,3.8,1.6l3.8,1.7c2.5,1.2,5,2.3,7.5,3.5,4.9,2.6,9.8,5,14.5,7.9,2.4,1.4,4.8,2.7,7.1,4.2l6.9,4.5c9,6.2,17.9,12.8,26,20.2,4.2,3.5,8,7.5,12,11.3,1.9,2,3.8,4,5.6,6l2.8,3,2.7,3.1c28.7,33.2,48.1,74.2,55.5,117.1l1.3,8.1c.4,2.7.6,5.4.9,8.1.7,5.4.9,10.8,1.2,16.2.2,2.7,0,5.4.1,8.1,0,2.7,0,5.4,0,8.1-.1,5.4-.5,10.8-1,16.2-1,10.8-2.8,21.5-5.2,32-1.7,7.2-3.8,14.3-6.1,21.3l29.5.5-53.9,50.6,1.4-73.9,19.7,21.1c1.8-6.8,3.4-13.6,4.6-20.5,1.9-10.4,3.1-20.9,3.6-31.5Z"/>
</svg>