<?xml version="1.0" encoding="UTF-8"?>
<svg id="Calque_1" data-name="Calque 1" xmlns="http://www.w3.org/2000/svg" version="1.1" viewBox="0 0 1366 310">
  <defs>
    <style>
      .cls-1, .cls-2 {
        fill: #000;
        stroke-width: 0px;
      }

      .cls-2 {
        fill-rule: evenodd;
      }
    </style>
  </defs>
  <path class="cls-1" d="M512.4,198.4v-36.2h-59.6v36.2h-23.4v-86.8h23.4v31.6h59.6v-31.6h23.4v86.8h-23.4ZM680.4,155.1c0,7.5-1.4,14-4.1,19.8-2.7,5.7-6.7,10.4-11.7,14.3-5.1,3.8-11.3,6.7-18.6,8.7-7.2,1.9-15.4,2.9-24.4,2.9s-17.2-1-24.6-2.9c-7.3-2-13.5-4.9-18.6-8.7-5.1-3.8-9.1-8.6-11.9-14.3-2.8-5.7-4.2-12.3-4.2-19.8s1.4-14,4.2-19.7c2.8-5.7,6.7-10.5,11.9-14.3,5.1-3.8,11.3-6.7,18.6-8.7,7.3-2,15.5-3,24.6-3s17.2,1,24.4,3c7.3,1.9,13.5,4.8,18.6,8.7,5.1,3.8,9,8.6,11.7,14.3,2.7,5.7,4.1,12.2,4.1,19.7ZM656.7,155.1c0-3.2-.5-6.5-1.6-9.7-1-3.2-2.8-6.1-5.5-8.7-2.6-2.6-6.2-4.7-10.7-6.3-4.5-1.6-10.3-2.4-17.4-2.4s-8.9.4-12.4,1.1c-3.6.7-6.7,1.7-9.3,3-2.6,1.3-4.8,2.8-6.6,4.6-1.8,1.7-3.2,3.6-4.2,5.6-1.1,2-1.8,4.1-2.3,6.3-.4,2.1-.6,4.3-.6,6.4s.2,4.3.6,6.5c.5,2.2,1.2,4.3,2.3,6.3,1.1,2,2.5,3.8,4.2,5.6,1.8,1.7,4,3.2,6.6,4.5,2.6,1.3,5.7,2.3,9.3,3,3.6.7,7.7,1.1,12.4,1.1,7,0,12.8-.8,17.4-2.4,4.5-1.6,8.1-3.7,10.7-6.3,2.7-2.6,4.5-5.5,5.5-8.7,1.1-3.2,1.6-6.5,1.6-9.7ZM786.7,131.3c-.6-.2-1.6-.5-2.8-.8-1.2-.4-2.6-.7-4.2-1.1-1.6-.4-3.4-.7-5.3-.9-1.9-.3-3.9-.4-5.9-.4-4.2,0-8.1.5-11.8,1.6-3.6,1-7,2.4-10.2,4.1-3.2,1.7-6.1,3.6-8.8,5.8-2.7,2.1-5.2,4.4-7.5,6.6v52.2h-23.4v-86.8h23.4v14.1c2.8-2.1,5.7-4.1,8.6-6.1,3-2,6.1-3.7,9.3-5.2,3.2-1.5,6.7-2.7,10.2-3.6,3.6-.9,7.4-1.4,11.4-1.4s3.1,0,4.6.3c1.6.1,3.1.3,4.6.5,1.5.2,2.9.4,4.2.7,1.3.3,2.4.5,3.4.8v19.6ZM886.7,136.1c-1.6-.8-3.8-1.7-6.5-2.7-2.7-1-5.7-2-9.2-2.8-3.4-.9-7.1-1.7-11.1-2.3-4-.6-8.1-.9-12.3-.9s-6.3.1-8.7.3c-2.4.2-4.4.5-6,.8-1.6.3-2.9.7-3.9,1.2-.9.4-1.6.9-2.1,1.3-.5.5-.8.9-1,1.4-.1.5-.2.9-.2,1.3,0,1.3.6,2.4,1.9,3.3,1.3.9,3,1.8,5.2,2.5,2.2.7,4.7,1.4,7.6,2.1,2.9.6,6,1.3,9.2,2,3.3.7,6.6,1.4,10.1,2.3,3.5.8,6.9,1.7,10.1,2.8,3.3,1.1,6.4,2.4,9.3,3.9,2.9,1.4,5.5,3.1,7.6,5.1,2.2,1.9,3.9,4.2,5.2,6.7,1.3,2.5,1.9,5.4,1.9,8.7s-.7,7.7-2.2,10.7c-1.5,3-3.5,5.5-5.9,7.6-2.4,2.1-5.3,3.7-8.5,5-3.2,1.2-6.6,2.2-10.2,2.8-3.5.7-7.1,1.1-10.8,1.3-3.6.2-7.1.3-10.4.3-8.6,0-16.5-.7-23.9-2.1-7.3-1.4-13.7-3.1-19.3-5.2v-20.7c5.8,3.2,12.3,5.7,19.7,7.5,7.4,1.8,15.3,2.7,23.7,2.7s9-.3,12.1-.8c3.2-.5,5.6-1.2,7.4-2,1.8-.8,3-1.7,3.6-2.7.6-1,.9-1.9.9-2.8,0-1.4-.6-2.6-1.9-3.6-1.3-1.1-3-2-5.2-2.7-2.2-.8-4.7-1.5-7.6-2.1-2.9-.7-6-1.3-9.3-2-3.2-.7-6.6-1.4-10-2.1-3.5-.8-6.8-1.6-10.1-2.7-3.2-1.1-6.3-2.3-9.2-3.6-2.9-1.4-5.5-3-7.6-4.9-2.2-1.9-3.9-4.1-5.2-6.5-1.3-2.5-1.9-5.3-1.9-8.6s.7-7.1,2-9.9c1.3-2.8,3.2-5.1,5.4-7.1,2.3-2,5-3.6,8-4.8,3-1.2,6.2-2.2,9.5-2.8,3.3-.7,6.7-1.1,10.1-1.4,3.4-.3,6.7-.4,9.7-.4s6.8.2,10.4.5c3.6.3,7.1.8,10.5,1.5,3.5.6,6.8,1.3,10,2.1,3.2.8,6.2,1.6,9,2.5v20.1ZM1018.1,194.1c-7.1,2.4-14.2,4-21.3,5.1-7.1,1.1-14.3,1.6-21.7,1.6s-17.9-1-25.3-3c-7.4-2.1-13.6-5-18.6-8.9-5.1-3.9-8.9-8.6-11.6-14.2-2.7-5.6-4-11.9-4-19s1.3-12.7,4-18.2c2.7-5.6,6.5-10.5,11.4-14.6,4.9-4.2,10.9-7.4,17.8-9.7,6.9-2.4,14.7-3.5,23.2-3.5s15.1,1.1,21.6,3.2c6.6,2.1,12.2,5.2,16.9,9.4,4.7,4.2,8.4,9.3,10.9,15.4,2.6,6.1,3.9,13.1,3.9,21.1v5.8h-85.5c.8,2.7,2,5.2,3.7,7.5,1.8,2.3,4.1,4.2,7.1,5.8,3,1.6,6.7,2.8,11,3.7,4.4.9,9.6,1.3,15.7,1.3s8.5-.3,12.6-.8c4.1-.5,8-1.2,11.6-2.1,3.6-.9,6.8-1.9,9.7-2.9,2.9-1.1,5.2-2.1,7-3.2v20.3ZM1001.9,147.2c-.2-2.1-.9-4.4-2-6.6-1.1-2.3-2.7-4.4-5.1-6.3-2.3-1.9-5.3-3.4-9.1-4.5-3.7-1.2-8.4-1.8-14-1.8s-9.8.7-13.6,2c-3.8,1.3-7.1,2.9-9.7,4.9-2.6,1.9-4.6,4-6,6.3-1.4,2.2-2.4,4.3-2.8,6.2h62.2ZM1087.8,118.8v79.6h-7.8v-79.6h-39.5v-7.2h86.8v7.2h-39.5ZM1234.3,193.8c-3.5,1.1-6.8,2-9.9,2.8-3,.8-6,1.4-9,1.8-2.9.5-6,.9-9,1.1-3,.3-6.4.4-10,.4-8.5,0-16.2-1-23-3.1-6.9-2.1-12.7-5-17.6-8.8-4.8-3.9-8.5-8.5-11.1-14-2.6-5.5-3.9-11.6-3.9-18.4s1.2-12.7,3.7-18.2c2.5-5.5,6-10.3,10.5-14.2,4.5-4,9.9-7,16.2-9.2,6.3-2.2,13.2-3.3,20.8-3.3s14.9,1.1,21,3.2c6.1,2.1,11.3,5.1,15.5,9,4.2,3.9,7.4,8.7,9.6,14.3,2.2,5.6,3.3,11.8,3.3,18.8v2h-92.5c.5,5.4,1.8,10.3,4,14.6,2.2,4.3,5.4,8,9.5,11.1,4.1,3,9.2,5.4,15.2,7,6,1.6,13,2.4,21,2.4s6.9-.2,10.4-.7c3.5-.5,6.8-1.1,10-1.8,3.2-.8,6.1-1.7,8.8-2.7,2.7-1,4.8-2,6.5-3.1v9.2ZM1233.7,151c-.3-4.4-1.3-8.6-3-12.6-1.7-4-4.2-7.6-7.6-10.7-3.3-3.1-7.6-5.5-12.8-7.3-5.1-1.8-11.3-2.7-18.5-2.7s-12.7.9-17.8,2.7c-5.1,1.8-9.4,4.3-12.9,7.3-3.5,3-6.3,6.6-8.3,10.6-2,4-3.3,8.2-3.9,12.7h84.7ZM1364.5,154.9c0,5.6-.6,10.5-1.8,14.8-1.1,4.3-2.8,8-4.9,11.2-2.1,3.2-4.7,5.9-7.7,8.1-3,2.2-6.3,4-10,5.4-3.7,1.3-7.7,2.3-12,3-4.3.6-8.8.9-13.6.9h-44.8v-86.8h44.6c7.1,0,13.7.7,19.8,2.1,6.1,1.4,11.4,3.8,15.8,7.1,4.5,3.3,8,7.8,10.5,13.3,2.6,5.6,3.9,12.5,3.9,20.8ZM1356.3,154.9c0-4.7-.5-8.9-1.4-12.5-.9-3.6-2.3-6.8-4-9.4-1.7-2.7-3.8-4.9-6.3-6.8-2.5-1.8-5.3-3.3-8.4-4.4-3.1-1.1-6.5-1.9-10.2-2.4-3.7-.5-7.6-.7-11.7-.7h-36.8v72.3h36.8c6.2,0,11.9-.5,17-1.6,5.1-1.1,9.5-3.1,13.2-5.8,3.7-2.8,6.6-6.5,8.7-11.1,2.1-4.7,3.1-10.5,3.1-17.6Z"/>
  <g>
    <g>
      <path class="cls-2" d="M155.4,67.3c1,9.8-6.4,10.6-6.4,10.6,0-17.8-19.1-34.7-19.1-34.7,3.3,15.9-10.8,26.1-10.8,26.1,10.2-11.1,2-20.1,7.3-35.3,5.3-15.2,29,26.6,29,26.6,118.3,30.3,119.6,111.7,117.3,152.5-2.3,40.8-25.6,69.5-25.6,69.5,0,0,22.2-67.4,6.8-89.9,4.5,67.4-66.9,112.4-79.8,117.2,59-66.4,68.6-116.2,70.5-134s8-80.8-89.3-108.7Z"/>
      <path class="cls-2" d="M87.6,184.7c15.8.9,41.6,16.4,70.3-21.8,12.9,65.1-103.3,107.9-103.3,107.9,156,35.4,181.1-63.7,143.6-118,6.7,54.5-43.2,102-92.5,110.4,0,0,73.6-40,58.6-125.1-18.8,34.6-48,56.8-84.1,28,0,0-3.7-.4,0,4.9-19.8,1.2-27.4,28.8-46.5,9,0,0,.4,9.6,12.3,10.5,11.8.9,25.8-6.6,41.5-5.7h0Z"/>
      <path class="cls-2" d="M140.9,83s-29.1-1.5-33.9,18.6c0,0-1.4,5.5-17.6,13.5,0,0-37.3,26.2-52.2,32.2,3.6-5.3,16.4-5.3,49.6-36,0,0,30.8-33.8,42.5-35.4,11.7-1.6,11.6,7,11.6,7Z"/>
      <path class="cls-2" d="M104.7,123.6c-.7-2.1,7.1-10.3,9.9-11.9,2.8-1.6,12.8-5.2,13.5-3.8.7,1.4-5.4,10.1-9.1,11.5-3.7,1.4-13.7,6.3-14.4,4.2Z"/>
      <path class="cls-2" d="M34,169.2c-2-5.9,10.2-20.8,0-14.5-10.2,6.4,2,20.4,0,14.5Z"/>
    </g>
    <path class="cls-1" d="M308,169c.6-13.3-.5-26.7-3.2-39.7-.3-1.6-.7-3.2-1.1-4.8-.4-1.6-.8-3.2-1.2-4.8-1-3.2-1.9-6.4-3.1-9.4-2.1-6.3-4.8-12.3-7.8-18.2l-2.3-4.4c-.7-1.5-1.7-2.9-2.5-4.3-1.6-2.9-3.5-5.6-5.3-8.3-.9-1.4-1.9-2.7-2.9-4s-1.9-2.7-3-3.9l-3.1-3.8-4.9-5.5-1.7-1.8c-1.1-1.2-2.3-2.4-3.4-3.5-2.4-2.2-4.7-4.6-7.3-6.6-4.9-4.3-10.3-8.2-15.7-11.8l-4.2-2.6c-1.4-.9-2.8-1.6-4.3-2.5-2.8-1.7-5.8-3.1-8.7-4.5-1.5-.7-3-1.3-4.5-2l-2.2-1c-.7-.3-1.5-.6-2.3-.9l-4.6-1.8-4.7-1.6-2.3-.8-2.4-.7-4.7-1.3-4.8-1.1-2.4-.5-2.4-.4-4.8-.8-4.9-.6-2.4-.3c-.8,0-1.6-.1-2.5-.2l-4.9-.4c-6.5-.2-13.1-.3-19.6.3-3.3.2-6.5.7-9.8,1.1h-1.2c0,.1-1.2.4-1.2.4l-2.4.4-2.4.4c-.8.1-1.6.3-2.4.5-3.2.7-6.4,1.4-9.5,2.4l-2.4.7-1.2.3-1.2.4-4.7,1.6c-6.1,2.2-12.2,4.7-18,7.8-3,1.4-5.7,3.1-8.6,4.7-1.4.8-2.8,1.7-4.2,2.6l-2.1,1.3c-.7.5-1.3.9-2,1.4l-4,2.8-3.9,3c-.6.5-1.3,1-1.9,1.5l-1.9,1.6c-1.2,1.1-2.5,2.1-3.7,3.2-19.5,17.5-34.2,40.4-42.5,65.4l-1.4,4.7c-.2.8-.5,1.6-.7,2.4l-.6,2.4c-.4,1.6-.8,3.2-1.2,4.8l-.9,4.9c-.2.8-.3,1.6-.5,2.4l-.3,2.5-.7,4.9-.5,4.9-.2,2.5v2.5c-.1,0-.3,5-.3,5,0,1.7,0,3.3,0,5v2.5c0,.8,0,1.7.1,2.5l.3,5,.5,5,.3,2.5.4,2.5.8,4.9,1,4.9c.2.8.3,1.6.5,2.4l.6,2.4c.4,1.6.8,3.2,1.2,4.8,1,3.2,1.9,6.4,3,9.5,2.2,6.3,4.9,12.5,7.9,18.4,6,12,13.7,23.2,22.6,33.3-19.4-18.9-33.5-43.4-40.3-70l-1.2-5-1-5.1-.5-2.5-.4-2.6-.7-5.1-.5-5.1c0-.9-.2-1.7-.2-2.6v-2.6c-.2-1.7-.3-3.4-.3-5.2v-5.2s0-2.6,0-2.6v-2.6c.1,0,.5-5.2.5-5.2l.6-5.2.3-2.6c.1-.9.3-1.7.4-2.6l.8-5.1c.3-1.7.7-3.4,1.1-5.1l.5-2.5c.2-.8.4-1.7.7-2.5l1.4-5c.5-1.6,1.1-3.3,1.6-4.9l.8-2.5c.3-.8.6-1.6.9-2.4l1.8-4.9,2.1-4.8,1-2.4,1.1-2.3c.8-1.6,1.5-3.1,2.3-4.7,1.7-3,3.3-6.1,5.2-9,3.6-5.9,7.8-11.5,12.1-16.9l3.4-4c1.1-1.3,2.4-2.6,3.5-3.8,2.3-2.6,4.9-4.9,7.4-7.4,10.2-9.4,21.6-17.6,34.1-24,6.2-3.3,12.6-6,19.1-8.4l5-1.7,1.2-.4,1.3-.4,2.5-.7c3.3-1,6.7-1.8,10.1-2.6,13.6-3,27.7-3.9,41.6-3.2l5.2.4c.9,0,1.7.1,2.6.2l2.6.3,5.2.7,5.1.9,2.6.5,2.6.6,5.1,1.2,5,1.4,2.5.7,2.5.8,4.9,1.7,4.8,1.9c.8.3,1.6.6,2.4,1l2.4,1.1c1.6.7,3.2,1.4,4.7,2.2,3.1,1.6,6.2,3.1,9.2,5,1.5.9,3,1.7,4.5,2.7l4.4,2.8c5.7,3.9,11.3,8.1,16.5,12.8,2.6,2.2,5.1,4.7,7.6,7.1,1.2,1.2,2.4,2.5,3.6,3.8l1.8,1.9,1.7,2c18.1,21,30.4,46.9,35.1,74.1l.8,5.1c.3,1.7.4,3.4.6,5.1.4,3.4.6,6.8.8,10.3.1,1.7,0,3.4,0,5.2,0,1.7,0,3.4,0,5.1,0,3.4-.3,6.8-.6,10.3-.7,6.8-1.8,13.6-3.3,20.2-1.1,4.6-2.4,9-3.9,13.5l18.6.3-34.1,32,.9-46.7,12.5,13.3c1.2-4.3,2.1-8.6,2.9-13,1.2-6.6,2-13.2,2.3-19.9Z"/>
  </g>
</svg>