<svg width="233" height="73" viewBox="0 0 233 73" fill="none" xmlns="http://www.w3.org/2000/svg">
<rect x="0.5" y="0.5" width="232" height="72" rx="11.5" fill="white"/>
<rect x="0.5" y="0.5" width="232" height="72" rx="11.5" stroke="black"/>
<path d="M60.5596 37.7357C60.5981 34.7352 62.2032 31.8961 64.7496 30.3245C63.1432 28.0213 60.4526 26.5611 57.6533 26.4732C54.6676 26.1585 51.7731 28.2667 50.2517 28.2667C48.7008 28.2667 46.3582 26.5044 43.8357 26.5565C40.5478 26.6631 37.4826 28.5398 35.8829 31.4256C32.4443 37.4023 35.0092 46.1861 38.3031 51.0172C39.9511 53.3829 41.8772 56.0254 44.3974 55.9317C46.8636 55.829 47.7847 54.3529 50.7616 54.3529C53.7109 54.3529 54.575 55.9317 57.1464 55.8721C59.7927 55.829 61.46 53.4959 63.0503 51.1078C64.2344 49.4222 65.1455 47.5592 65.75 45.5879C62.6401 44.2674 60.5632 41.1255 60.5596 37.7357Z" fill="#090909"/>
<path d="M55.7027 23.296C57.1456 21.5571 57.8565 19.322 57.6843 17.0654C55.4799 17.2979 53.4436 18.3555 51.9812 20.0277C50.5512 21.6615 49.807 23.8573 49.9477 26.0276C52.1529 26.0504 54.3208 25.0214 55.7027 23.296Z" fill="#090909"/>
<path d="M83.238 31V22.28H79.99V21.144H87.75V22.28H84.502V31H83.238ZM91.0868 31.208C88.7508 31.208 87.2788 29.768 87.2788 27.352C87.2788 24.968 88.8628 23.464 91.0548 23.464C93.3908 23.464 94.7188 24.904 94.7188 27.32V27.336H88.5428V27.368C88.5428 29.048 89.4708 30.104 91.1028 30.104C92.3348 30.104 93.2468 29.496 93.4388 28.264H94.6868C94.5428 30.008 93.2308 31.208 91.0868 31.208ZM90.1268 22.232L92.2708 19.64H93.1508L90.9588 22.232H90.1268ZM88.5748 26.824H93.4548C93.3748 25.544 92.5908 24.552 91.0548 24.552C89.7108 24.552 88.7348 25.416 88.5748 26.824ZM96.1613 31V20.472H97.4253V31H96.1613ZM102.681 31.208C100.345 31.208 98.8725 29.768 98.8725 27.352C98.8725 24.968 100.457 23.464 102.649 23.464C104.985 23.464 106.312 24.904 106.312 27.32V27.336H100.137V27.368C100.137 29.048 101.065 30.104 102.697 30.104C103.929 30.104 104.841 29.496 105.033 28.264H106.281C106.137 30.008 104.825 31.208 102.681 31.208ZM101.721 22.232L103.865 19.64H104.745L102.553 22.232H101.721ZM100.169 26.824H105.049C104.969 25.544 104.185 24.552 102.649 24.552C101.305 24.552 100.329 25.416 100.169 26.824ZM111.275 31.208C108.907 31.208 107.435 29.768 107.435 27.336C107.435 24.952 109.003 23.464 111.227 23.464C113.179 23.464 114.427 24.44 114.763 26.408H113.531C113.211 25.192 112.555 24.552 111.243 24.552C109.739 24.552 108.699 25.64 108.699 27.336C108.699 29 109.627 30.104 111.275 30.104C112.619 30.104 113.307 29.432 113.595 28.232H114.827C114.555 30.04 113.387 31.208 111.275 31.208ZM121.567 26.712C121.567 25.368 120.991 24.6 119.855 24.6C118.703 24.6 117.519 25.416 117.519 26.808V31H116.255V20.472H117.519V25.976H117.599L117.615 25.912C117.999 24.312 118.751 23.464 120.287 23.464C121.983 23.464 122.831 24.504 122.831 26.536V31H121.567V26.712ZM128.153 30.104C129.577 30.104 130.585 29.08 130.585 27.336C130.585 25.576 129.577 24.568 128.153 24.568C126.665 24.568 125.609 25.592 125.609 27.32C125.609 29.048 126.649 30.104 128.153 30.104ZM124.329 27.32C124.329 24.84 125.977 23.464 127.833 23.464C129.417 23.464 130.457 24.28 130.457 26.072H130.537V23.656H131.817V31H130.537V28.568H130.457C130.457 30.216 129.289 31.208 127.801 31.208C125.737 31.208 124.329 29.8 124.329 27.32ZM134.535 27.016V31H133.271V23.656H134.535V26.008H134.615C134.615 24.472 135.543 23.464 137.095 23.464V24.84H136.711C135.367 24.84 134.535 25.56 134.535 27.016ZM141.414 34.344C138.838 34.344 137.51 33.464 137.51 32.168C137.51 31.144 138.438 30.744 139.398 30.728V30.648C138.294 30.648 137.782 30.168 137.782 29.496C137.782 28.712 138.518 28.2 140.182 28.2V28.104C138.79 27.976 137.99 27.112 137.99 25.912C137.99 24.392 139.318 23.464 141.398 23.464C141.91 23.464 142.39 23.512 142.79 23.624C142.854 22.04 143.702 20.872 145.142 20.872V22.056C143.83 22.056 143.19 22.952 143.078 23.704C144.182 24.072 144.806 24.84 144.806 25.912C144.806 27.416 143.558 28.248 141.446 28.264H140.598C139.542 28.264 138.998 28.616 138.998 29.048C138.998 29.48 139.446 29.688 140.47 29.688H142.838C144.598 29.688 145.654 30.408 145.654 31.736C145.654 33.288 144.214 34.344 141.414 34.344ZM141.398 27.432C142.726 27.432 143.51 26.84 143.51 25.944C143.51 25.032 142.726 24.472 141.398 24.472C140.134 24.472 139.302 25.032 139.302 25.944C139.302 26.84 140.086 27.432 141.398 27.432ZM138.63 31.816C138.63 32.808 139.574 33.32 141.414 33.32C143.27 33.32 144.374 32.856 144.374 31.8C144.374 31.032 143.782 30.696 142.662 30.696H140.166C139.078 30.696 138.63 31.16 138.63 31.816ZM149.79 31.208C147.454 31.208 145.982 29.768 145.982 27.352C145.982 24.968 147.566 23.464 149.758 23.464C152.094 23.464 153.422 24.904 153.422 27.32V27.336H147.246V27.368C147.246 29.048 148.174 30.104 149.806 30.104C151.038 30.104 151.95 29.496 152.142 28.264H153.39C153.246 30.008 151.934 31.208 149.79 31.208ZM147.278 26.824H152.158C152.078 25.544 151.294 24.552 149.758 24.552C148.414 24.552 147.438 25.416 147.278 26.824ZM156.128 27.016V31H154.864V23.656H156.128V26.008H156.208C156.208 24.472 157.136 23.464 158.688 23.464V24.84H158.304C156.96 24.84 156.128 25.56 156.128 27.016ZM166.788 31.208C164.532 31.208 163.156 30.232 163.156 28.632H164.436C164.452 29.592 165.444 30.2 166.82 30.2C167.988 30.2 168.788 29.768 168.788 29.048C168.788 28.408 168.292 28.104 166.644 27.896C164.228 27.592 163.364 26.952 163.364 25.656C163.364 24.28 164.628 23.464 166.564 23.464C168.548 23.464 169.812 24.36 169.812 25.848H168.548C168.532 25 167.716 24.424 166.564 24.424C165.38 24.424 164.628 24.84 164.628 25.64C164.628 26.28 165.156 26.552 166.82 26.776C169.204 27.064 170.052 27.656 170.052 28.984C170.052 30.312 168.74 31.208 166.788 31.208ZM173.967 31.208C172.479 31.208 171.519 30.312 171.519 28.232V23.656H172.783V28.04C172.783 29.512 173.391 30.056 174.303 30.056C175.423 30.056 176.607 29.24 176.607 27.864V23.656H177.871V31H176.607V28.664H176.511V28.76C176.511 30.248 175.407 31.208 173.967 31.208ZM180.894 27.016V31H179.63V23.656H180.894V26.008H180.974C180.974 24.472 181.902 23.464 183.454 23.464V24.84H183.07C181.726 24.84 180.894 25.56 180.894 27.016ZM79.88 55L85.99 38.984H90.748L96.832 55H93.348L91.84 51.1H84.872L83.364 55H79.88ZM86.016 48.188H90.722L90.592 47.824C89.812 45.692 88.642 42.52 88.46 40.726H88.252C88.096 42.52 86.952 45.666 86.146 47.824L86.016 48.188ZM105.129 52.53C107.131 52.53 108.431 51.126 108.431 48.916C108.431 46.68 107.105 45.302 105.025 45.302C102.997 45.302 101.463 46.602 101.463 48.89C101.463 51.23 103.179 52.53 105.129 52.53ZM101.723 50.71H101.567V60.122H98.3168V42.832H101.567V47.122H101.723C101.931 44.08 103.699 42.494 106.299 42.494C109.653 42.494 111.733 44.886 111.733 48.942C111.733 52.998 109.341 55.338 106.221 55.338C103.985 55.338 101.905 54.22 101.723 50.71ZM120.693 52.53C122.695 52.53 123.995 51.126 123.995 48.916C123.995 46.68 122.669 45.302 120.589 45.302C118.561 45.302 117.027 46.602 117.027 48.89C117.027 51.23 118.743 52.53 120.693 52.53ZM117.287 50.71H117.131V60.122H113.881V42.832H117.131V47.122H117.287C117.495 44.08 119.263 42.494 121.863 42.494C125.217 42.494 127.297 44.886 127.297 48.942C127.297 52.998 124.905 55.338 121.785 55.338C119.549 55.338 117.469 54.22 117.287 50.71ZM142.536 55.338C137.83 55.338 135.178 53.284 135.126 49.618H138.532C138.636 51.438 140.014 52.374 142.614 52.374C144.85 52.374 146.072 51.594 146.072 50.268C146.072 49.072 145.162 48.63 142.068 48.214C137.362 47.59 135.62 46.394 135.62 43.638C135.62 40.648 138.246 38.672 142.276 38.672C146.488 38.672 148.958 40.648 149.01 44.08H145.604C145.552 42.416 144.408 41.584 142.12 41.584C140.196 41.584 139 42.442 139 43.638C139 44.704 139.806 45.224 142.848 45.588C147.554 46.16 149.426 47.408 149.426 50.216C149.426 53.284 146.8 55.338 142.536 55.338ZM157.355 55.338C154.573 55.338 153.091 53.96 153.091 50.97V45.38H150.491V42.832H153.091V38.984H156.315V42.832H159.903V45.38H156.315V50.242C156.315 51.88 157.017 52.452 158.317 52.452C158.863 52.452 159.461 52.322 159.903 52.062V54.766C159.331 55.104 158.343 55.338 157.355 55.338ZM167.423 55.338C163.419 55.338 160.689 52.712 160.689 48.916C160.689 45.146 163.471 42.494 167.423 42.494C171.401 42.494 174.183 45.146 174.183 48.916C174.183 52.712 171.453 55.338 167.423 55.338ZM167.423 52.53C169.425 52.53 170.881 51.048 170.881 48.916C170.881 46.784 169.425 45.276 167.423 45.276C165.369 45.276 163.965 46.784 163.965 48.916C163.965 51.048 165.369 52.53 167.423 52.53ZM179.592 48.994V55H176.342V42.832H179.592V47.2H179.748C179.748 44.002 181.126 42.494 183.882 42.494V45.9H183.232C180.684 45.9 179.592 46.784 179.592 48.994ZM191.184 55.338C187.154 55.338 184.658 52.946 184.658 49.02C184.658 45.094 187.206 42.494 191.262 42.494C195.5 42.494 197.606 45.016 197.606 49.046V49.072H187.882C187.908 51.256 189.182 52.582 191.34 52.582C193.03 52.582 194.226 51.776 194.486 50.424H197.606C197.398 53.154 195.084 55.338 191.184 55.338ZM187.908 48.24H194.486C194.356 46.524 193.29 45.276 191.262 45.276C189.416 45.276 188.142 46.394 187.908 48.24Z" fill="black"/>
</svg>
