<svg width="233" height="73" viewBox="0 0 233 73" fill="none" xmlns="http://www.w3.org/2000/svg">
<rect x="0.5" y="0.5" width="232" height="72" rx="11.5" fill="white"/>
<rect x="0.5" y="0.5" width="232" height="72" rx="11.5" stroke="black"/>
<g filter="url(#filter0_ii_23_9961)">
<path d="M35.0894 20.2291C34.711 20.6312 34.4873 21.2552 34.4873 22.0633V50.9349C34.4873 51.7443 34.711 52.367 35.0894 52.7691L35.1856 52.8631L51.2961 36.6897V36.4991V36.3085L35.1856 20.1338L35.0894 20.2291Z" fill="url(#paint0_linear_23_9961)"/>
<path d="M56.6652 42.0826L51.2959 36.6898V36.4992V36.3086L56.6665 30.917L56.7874 30.9862L63.1502 34.6154C64.9669 35.6519 64.9669 37.3477 63.1502 38.3856L56.7874 42.0147L56.6652 42.0826Z" fill="url(#paint1_linear_23_9961)"/>
<g filter="url(#filter1_i_23_9961)">
<path d="M56.7876 42.0133L51.2948 36.499L35.0894 52.769C35.6875 53.4061 36.6771 53.4844 37.7916 52.85L56.7876 42.0133Z" fill="url(#paint2_linear_23_9961)"/>
</g>
<path d="M56.7876 30.985L37.7916 20.1497C36.6771 19.5139 35.6875 19.5935 35.0894 20.2306L51.2961 36.5006L56.7876 30.985Z" fill="url(#paint3_linear_23_9961)"/>
</g>
<path d="M82.0007 31V22.28H78.7527V21.144H86.5127V22.28H83.2647V31H82.0007ZM89.8494 31.208C87.5134 31.208 86.0414 29.768 86.0414 27.352C86.0414 24.968 87.6254 23.464 89.8174 23.464C92.1534 23.464 93.4814 24.904 93.4814 27.32V27.336H87.3054V27.368C87.3054 29.048 88.2334 30.104 89.8654 30.104C91.0974 30.104 92.0094 29.496 92.2014 28.264H93.4494C93.3054 30.008 91.9934 31.208 89.8494 31.208ZM88.8894 22.232L91.0334 19.64H91.9134L89.7214 22.232H88.8894ZM87.3374 26.824H92.2174C92.1374 25.544 91.3534 24.552 89.8174 24.552C88.4734 24.552 87.4974 25.416 87.3374 26.824ZM94.9239 31V20.472H96.1879V31H94.9239ZM101.443 31.208C99.1072 31.208 97.6352 29.768 97.6352 27.352C97.6352 24.968 99.2192 23.464 101.411 23.464C103.747 23.464 105.075 24.904 105.075 27.32V27.336H98.8992V27.368C98.8992 29.048 99.8272 30.104 101.459 30.104C102.691 30.104 103.603 29.496 103.795 28.264H105.043C104.899 30.008 103.587 31.208 101.443 31.208ZM100.483 22.232L102.627 19.64H103.507L101.315 22.232H100.483ZM98.9312 26.824H103.811C103.731 25.544 102.947 24.552 101.411 24.552C100.067 24.552 99.0912 25.416 98.9312 26.824ZM110.038 31.208C107.67 31.208 106.198 29.768 106.198 27.336C106.198 24.952 107.766 23.464 109.99 23.464C111.942 23.464 113.19 24.44 113.526 26.408H112.294C111.974 25.192 111.318 24.552 110.006 24.552C108.502 24.552 107.462 25.64 107.462 27.336C107.462 29 108.39 30.104 110.038 30.104C111.382 30.104 112.07 29.432 112.358 28.232H113.59C113.318 30.04 112.15 31.208 110.038 31.208ZM120.33 26.712C120.33 25.368 119.754 24.6 118.618 24.6C117.466 24.6 116.282 25.416 116.282 26.808V31H115.018V20.472H116.282V25.976H116.362L116.378 25.912C116.762 24.312 117.514 23.464 119.05 23.464C120.746 23.464 121.594 24.504 121.594 26.536V31H120.33V26.712ZM126.915 30.104C128.339 30.104 129.347 29.08 129.347 27.336C129.347 25.576 128.339 24.568 126.915 24.568C125.427 24.568 124.371 25.592 124.371 27.32C124.371 29.048 125.411 30.104 126.915 30.104ZM123.091 27.32C123.091 24.84 124.739 23.464 126.595 23.464C128.179 23.464 129.219 24.28 129.219 26.072H129.299V23.656H130.579V31H129.299V28.568H129.219C129.219 30.216 128.051 31.208 126.563 31.208C124.499 31.208 123.091 29.8 123.091 27.32ZM133.297 27.016V31H132.033V23.656H133.297V26.008H133.377C133.377 24.472 134.305 23.464 135.857 23.464V24.84H135.473C134.129 24.84 133.297 25.56 133.297 27.016ZM140.177 34.344C137.601 34.344 136.273 33.464 136.273 32.168C136.273 31.144 137.201 30.744 138.161 30.728V30.648C137.057 30.648 136.545 30.168 136.545 29.496C136.545 28.712 137.281 28.2 138.945 28.2V28.104C137.553 27.976 136.753 27.112 136.753 25.912C136.753 24.392 138.081 23.464 140.161 23.464C140.673 23.464 141.153 23.512 141.553 23.624C141.617 22.04 142.465 20.872 143.905 20.872V22.056C142.593 22.056 141.953 22.952 141.841 23.704C142.945 24.072 143.569 24.84 143.569 25.912C143.569 27.416 142.321 28.248 140.209 28.264H139.361C138.305 28.264 137.761 28.616 137.761 29.048C137.761 29.48 138.209 29.688 139.233 29.688H141.601C143.361 29.688 144.417 30.408 144.417 31.736C144.417 33.288 142.977 34.344 140.177 34.344ZM140.161 27.432C141.489 27.432 142.273 26.84 142.273 25.944C142.273 25.032 141.489 24.472 140.161 24.472C138.897 24.472 138.065 25.032 138.065 25.944C138.065 26.84 138.849 27.432 140.161 27.432ZM137.393 31.816C137.393 32.808 138.337 33.32 140.177 33.32C142.033 33.32 143.137 32.856 143.137 31.8C143.137 31.032 142.545 30.696 141.425 30.696H138.929C137.841 30.696 137.393 31.16 137.393 31.816ZM148.553 31.208C146.217 31.208 144.745 29.768 144.745 27.352C144.745 24.968 146.329 23.464 148.521 23.464C150.857 23.464 152.185 24.904 152.185 27.32V27.336H146.009V27.368C146.009 29.048 146.937 30.104 148.569 30.104C149.801 30.104 150.713 29.496 150.905 28.264H152.153C152.009 30.008 150.697 31.208 148.553 31.208ZM146.041 26.824H150.921C150.841 25.544 150.057 24.552 148.521 24.552C147.177 24.552 146.201 25.416 146.041 26.824ZM154.891 27.016V31H153.627V23.656H154.891V26.008H154.971C154.971 24.472 155.899 23.464 157.451 23.464V24.84H157.067C155.723 24.84 154.891 25.56 154.891 27.016ZM165.551 31.208C163.295 31.208 161.919 30.232 161.919 28.632H163.199C163.215 29.592 164.207 30.2 165.583 30.2C166.751 30.2 167.551 29.768 167.551 29.048C167.551 28.408 167.055 28.104 165.407 27.896C162.991 27.592 162.127 26.952 162.127 25.656C162.127 24.28 163.391 23.464 165.327 23.464C167.311 23.464 168.575 24.36 168.575 25.848H167.311C167.295 25 166.479 24.424 165.327 24.424C164.143 24.424 163.391 24.84 163.391 25.64C163.391 26.28 163.919 26.552 165.583 26.776C167.967 27.064 168.815 27.656 168.815 28.984C168.815 30.312 167.503 31.208 165.551 31.208ZM172.73 31.208C171.242 31.208 170.282 30.312 170.282 28.232V23.656H171.546V28.04C171.546 29.512 172.154 30.056 173.066 30.056C174.186 30.056 175.37 29.24 175.37 27.864V23.656H176.634V31H175.37V28.664H175.274V28.76C175.274 30.248 174.17 31.208 172.73 31.208ZM179.657 27.016V31H178.393V23.656H179.657V26.008H179.737C179.737 24.472 180.665 23.464 182.217 23.464V24.84H181.833C180.489 24.84 179.657 25.56 179.657 27.016ZM80.1247 55V38.984H86.4947C90.6027 38.984 92.7607 41.246 92.7607 44.418C92.7607 47.642 90.6027 49.826 86.4947 49.826H83.4267V55H80.1247ZM86.4687 47.018C88.3407 47.018 89.4067 46.134 89.4067 44.444C89.4067 42.806 88.4187 41.922 86.5467 41.922H83.4267V47.018H86.4687ZM94.6928 55V37.892H97.9428V55H94.6928ZM107.213 52.582C109.293 52.582 110.645 51.1 110.645 48.942C110.645 46.706 109.345 45.276 107.239 45.276C105.133 45.276 103.677 46.628 103.677 48.916C103.677 51.178 105.081 52.582 107.213 52.582ZM100.375 48.916C100.375 44.938 103.157 42.494 106.329 42.494C109.059 42.494 110.385 43.95 110.385 46.94H110.541V42.832H113.791V55H110.541V50.866H110.385C110.385 53.934 108.617 55.338 106.147 55.338C102.715 55.338 100.375 52.868 100.375 48.916ZM118.23 60.122L119.712 56.014L114.694 42.832H117.944L119.972 48.214C120.596 49.982 121.142 51.542 121.246 53.284H121.402C121.558 51.568 122.026 50.164 122.702 48.214L124.626 42.832H127.85L121.454 60.122H118.23ZM142.289 55.338C137.583 55.338 134.931 53.284 134.879 49.618H138.285C138.389 51.438 139.767 52.374 142.367 52.374C144.603 52.374 145.825 51.594 145.825 50.268C145.825 49.072 144.915 48.63 141.821 48.214C137.115 47.59 135.373 46.394 135.373 43.638C135.373 40.648 137.999 38.672 142.029 38.672C146.241 38.672 148.711 40.648 148.763 44.08H145.357C145.305 42.416 144.161 41.584 141.873 41.584C139.949 41.584 138.753 42.442 138.753 43.638C138.753 44.704 139.559 45.224 142.601 45.588C147.307 46.16 149.179 47.408 149.179 50.216C149.179 53.284 146.553 55.338 142.289 55.338ZM157.108 55.338C154.326 55.338 152.844 53.96 152.844 50.97V45.38H150.244V42.832H152.844V38.984H156.068V42.832H159.656V45.38H156.068V50.242C156.068 51.88 156.77 52.452 158.07 52.452C158.616 52.452 159.214 52.322 159.656 52.062V54.766C159.084 55.104 158.096 55.338 157.108 55.338ZM167.176 55.338C163.172 55.338 160.442 52.712 160.442 48.916C160.442 45.146 163.224 42.494 167.176 42.494C171.154 42.494 173.936 45.146 173.936 48.916C173.936 52.712 171.206 55.338 167.176 55.338ZM167.176 52.53C169.178 52.53 170.634 51.048 170.634 48.916C170.634 46.784 169.178 45.276 167.176 45.276C165.122 45.276 163.718 46.784 163.718 48.916C163.718 51.048 165.122 52.53 167.176 52.53ZM179.345 48.994V55H176.095V42.832H179.345V47.2H179.501C179.501 44.002 180.879 42.494 183.635 42.494V45.9H182.985C180.437 45.9 179.345 46.784 179.345 48.994ZM190.937 55.338C186.907 55.338 184.411 52.946 184.411 49.02C184.411 45.094 186.959 42.494 191.015 42.494C195.253 42.494 197.359 45.016 197.359 49.046V49.072H187.635C187.661 51.256 188.935 52.582 191.093 52.582C192.783 52.582 193.979 51.776 194.239 50.424H197.359C197.151 53.154 194.837 55.338 190.937 55.338ZM187.661 48.24H194.239C194.109 46.524 193.043 45.276 191.015 45.276C189.169 45.276 187.895 46.394 187.661 48.24Z" fill="black"/>
<defs>
<filter id="filter0_ii_23_9961" x="34.4873" y="19.7109" width="30.0254" height="33.5771" filterUnits="userSpaceOnUse" color-interpolation-filters="sRGB">
<feFlood flood-opacity="0" result="BackgroundImageFix"/>
<feBlend mode="normal" in="SourceGraphic" in2="BackgroundImageFix" result="shape"/>
<feColorMatrix in="SourceAlpha" type="matrix" values="0 0 0 0 0 0 0 0 0 0 0 0 0 0 0 0 0 0 127 0" result="hardAlpha"/>
<feOffset dy="-0.795"/>
<feComposite in2="hardAlpha" operator="arithmetic" k2="-1" k3="1"/>
<feColorMatrix type="matrix" values="0 0 0 0 0 0 0 0 0 0 0 0 0 0 0 0 0 0 0.12 0"/>
<feBlend mode="normal" in2="shape" result="effect1_innerShadow_23_9961"/>
<feColorMatrix in="SourceAlpha" type="matrix" values="0 0 0 0 0 0 0 0 0 0 0 0 0 0 0 0 0 0 127 0" result="hardAlpha"/>
<feOffset dy="0.795"/>
<feComposite in2="hardAlpha" operator="arithmetic" k2="-1" k3="1"/>
<feColorMatrix type="matrix" values="0 0 0 0 1 0 0 0 0 1 0 0 0 0 1 0 0 0 0.25 0"/>
<feBlend mode="normal" in2="effect1_innerShadow_23_9961" result="effect2_innerShadow_23_9961"/>
</filter>
<filter id="filter1_i_23_9961" x="35.0894" y="36.499" width="21.6982" height="16.7891" filterUnits="userSpaceOnUse" color-interpolation-filters="sRGB">
<feFlood flood-opacity="0" result="BackgroundImageFix"/>
<feBlend mode="normal" in="SourceGraphic" in2="BackgroundImageFix" result="shape"/>
<feColorMatrix in="SourceAlpha" type="matrix" values="0 0 0 0 0 0 0 0 0 0 0 0 0 0 0 0 0 0 127 0" result="hardAlpha"/>
<feOffset dy="-0.795"/>
<feComposite in2="hardAlpha" operator="arithmetic" k2="-1" k3="1"/>
<feColorMatrix type="matrix" values="0 0 0 0 0 0 0 0 0 0 0 0 0 0 0 0 0 0 0.08 0"/>
<feBlend mode="normal" in2="shape" result="effect1_innerShadow_23_9961"/>
</filter>
<linearGradient id="paint0_linear_23_9961" x1="49.868" y1="21.7578" x2="27.9599" y2="43.5808" gradientUnits="userSpaceOnUse">
<stop stop-color="#00A0FF"/>
<stop offset="0.0066" stop-color="#00A1FF"/>
<stop offset="0.2601" stop-color="#00BEFF"/>
<stop offset="0.5122" stop-color="#00D2FF"/>
<stop offset="0.7604" stop-color="#00DFFF"/>
<stop offset="1" stop-color="#00E3FF"/>
</linearGradient>
<linearGradient id="paint1_linear_23_9961" x1="65.515" y1="36.4992" x2="34.0509" y2="36.4992" gradientUnits="userSpaceOnUse">
<stop stop-color="#FFE000"/>
<stop offset="0.4087" stop-color="#FFBD00"/>
<stop offset="0.7754" stop-color="#FFA500"/>
<stop offset="1" stop-color="#FF9C00"/>
</linearGradient>
<linearGradient id="paint2_linear_23_9961" x1="53.8047" y1="39.4936" x2="24.0945" y2="69.0883" gradientUnits="userSpaceOnUse">
<stop stop-color="#FF3A44"/>
<stop offset="1" stop-color="#C31162"/>
</linearGradient>
<linearGradient id="paint3_linear_23_9961" x1="31.008" y1="10.6195" x2="44.2744" y2="23.8344" gradientUnits="userSpaceOnUse">
<stop stop-color="#32A071"/>
<stop offset="0.0685" stop-color="#2DA771"/>
<stop offset="0.4762" stop-color="#15CF74"/>
<stop offset="0.8009" stop-color="#06E775"/>
<stop offset="1" stop-color="#00F076"/>
</linearGradient>
</defs>
</svg>
