<?xml version="1.0" encoding="utf-8"?>
<!-- Generator: Adobe Illustrator 26.0.3, SVG Export Plug-In . SVG Version: 6.00 Build 0)  -->
<svg version="1.1" id="Calque_1" xmlns="http://www.w3.org/2000/svg" xmlns:xlink="http://www.w3.org/1999/xlink" x="0px" y="0px"
	 viewBox="0 0 25 25" style="enable-background:new 0 0 25 25;" xml:space="preserve">
<style type="text/css">
	.st0{fill:url(#SVGID_1_);}
	.st1{fill:#3C3C3B;}
</style>
<linearGradient id="SVGID_1_" gradientUnits="userSpaceOnUse" x1="6.5978" y1="13.1893" x2="18.2249" y2="5.9717">
	<stop  offset="0" style="stop-color:#EB6608"/>
	<stop  offset="0.1895" style="stop-color:#EC6C08"/>
	<stop  offset="0.4371" style="stop-color:#EF7C07"/>
	<stop  offset="0.717" style="stop-color:#F49706"/>
	<stop  offset="1" style="stop-color:#FABA05"/>
</linearGradient>
<path class="st0" d="M14.85,8.89c-0.06,0.03-0.15,0.03-0.2,0l-0.33-0.2c-0.03-0.02-0.05-0.04-0.07-0.07c0,0,0,0,0,0
	c-0.02-0.04-0.03-0.07-0.03-0.1l-0.01-0.38c0-0.06,0.04-0.14,0.1-0.18l3.93-2.29l-5.52-3c-0.06-0.03-0.14-0.05-0.22-0.05
	c-0.08,0-0.16,0.02-0.22,0.05l-5.52,3l6.18,3.6c0.06,0.03,0.1,0.1,0.1,0.17v5.25c0,0.06-0.05,0.14-0.1,0.17l-0.33,0.19
	c-0.03,0.01-0.06,0.02-0.1,0.02c0,0,0,0-0.01,0c-0.04,0-0.08-0.01-0.11-0.02l-0.33-0.19c-0.06-0.03-0.1-0.11-0.1-0.17v-4.68
	c0-0.04-0.03-0.08-0.06-0.09L6.46,6.74v6.21c0,0.14,0.1,0.31,0.22,0.38l5.61,3.31c0.06,0.04,0.14,0.05,0.22,0.05
	c0.08,0,0.16-0.02,0.22-0.05l5.61-3.31c0.12-0.07,0.22-0.24,0.22-0.38V6.74L14.85,8.89z"/>
<g>
	<path class="st1" d="M2.62,20.28c-0.28-0.17-0.55-0.24-0.92-0.24c-0.98,0-1.7,0.67-1.7,1.69c0,1.01,0.67,1.68,1.71,1.68
		c0.33,0,0.65-0.06,0.94-0.24v-0.82c-0.25,0.19-0.52,0.29-0.82,0.29c-0.58,0-0.95-0.38-0.95-0.93c0-0.58,0.38-0.91,0.92-0.91
		c0.3,0,0.56,0.08,0.82,0.3V20.28z"/>
	<path class="st1" d="M7.94,22.6L7.94,22.6c-0.32-0.03-0.48-0.21-0.48-0.54v-3.41H6.59v3.47c0,0.95,0.53,1.26,1.35,1.26V22.6z"/>
	<path class="st1" d="M4.56,20.04c-0.96,0-1.69,0.68-1.69,1.68c0,1.01,0.72,1.69,1.69,1.69c0.96,0,1.69-0.68,1.69-1.69
		C6.25,20.72,5.52,20.04,4.56,20.04z M4.56,22.66c-0.47,0-0.81-0.36-0.81-0.94c0-0.58,0.34-0.93,0.81-0.93
		c0.47,0,0.81,0.35,0.81,0.93C5.37,22.3,5.03,22.66,4.56,22.66z"/>
	<path class="st1" d="M9.75,23.11c0.26,0.17,0.66,0.26,1.05,0.26c0.75,0,1.28-0.32,1.28-1.02c0-0.58-0.28-0.9-1.11-1.05
		c-0.3-0.07-0.42-0.16-0.42-0.33c0-0.15,0.12-0.27,0.41-0.27c0.33,0,0.61,0.11,0.92,0.31v-0.77C11.59,20.08,11.31,20,10.92,20
		c-0.69,0-1.23,0.33-1.23,1.03c0,0.59,0.31,0.88,1.04,1.01c0.35,0.07,0.49,0.15,0.49,0.35c0,0.2-0.18,0.28-0.45,0.28
		c-0.32,0-0.73-0.14-1.03-0.36V23.11z"/>
	<polygon class="st1" points="8.34,23.34 9.21,23.34 9.21,23.06 9.21,20.1 8.34,20.1 	"/>
	<path class="st1" d="M8.77,18.81c-0.24,0-0.44,0.2-0.44,0.44c0,0.24,0.19,0.44,0.44,0.44c0.24,0,0.43-0.19,0.43-0.44
		C9.21,19.01,9.02,18.81,8.77,18.81"/>
	<path class="st1" d="M23.31,20.04c-0.96,0-1.69,0.68-1.69,1.68c0,1.01,0.72,1.69,1.69,1.69c0.96,0,1.69-0.68,1.69-1.69
		C25,20.72,24.27,20.04,23.31,20.04z M23.31,22.66c-0.47,0-0.81-0.36-0.81-0.94c0-0.58,0.34-0.93,0.81-0.93
		c0.47,0,0.81,0.35,0.81,0.93C24.12,22.3,23.78,22.66,23.31,22.66z"/>
	<path class="st1" d="M12.37,23.11c0.26,0.17,0.66,0.26,1.05,0.26c0.75,0,1.28-0.32,1.28-1.02c0-0.58-0.28-0.9-1.11-1.05
		c-0.3-0.07-0.42-0.16-0.42-0.33c0-0.15,0.12-0.27,0.41-0.27c0.33,0,0.61,0.11,0.92,0.31v-0.77C14.21,20.08,13.93,20,13.55,20
		c-0.69,0-1.23,0.33-1.23,1.03c0,0.59,0.3,0.88,1.03,1.01c0.36,0.07,0.49,0.15,0.49,0.35c0,0.2-0.18,0.28-0.45,0.28
		c-0.32,0-0.72-0.14-1.03-0.36V23.11z"/>
	<polygon class="st1" points="15.07,23.34 15.94,23.34 15.94,23.06 15.94,20.1 15.07,20.1 	"/>
	<path class="st1" d="M15.51,18.81c-0.24,0-0.44,0.2-0.44,0.44c0,0.24,0.19,0.44,0.44,0.44c0.24,0,0.43-0.19,0.43-0.44
		C15.94,19.01,15.75,18.81,15.51,18.81"/>
	<path class="st1" d="M20.39,21.32c0-0.34-0.15-0.51-0.49-0.51c-0.23,0-0.46,0.05-0.61,0.12c0.03,0.07,0.07,0.18,0.07,0.33v2.08
		h-0.88v-2.02c0-0.34-0.16-0.51-0.49-0.51c-0.21,0-0.37,0.03-0.54,0.08v2.45h-0.87v-3.02c0.45-0.17,0.98-0.28,1.45-0.28
		c0.38,0,0.7,0.09,0.89,0.25c0.29-0.13,0.62-0.25,1.09-0.25c0.77,0,1.25,0.3,1.25,1.24v2.05h-0.87V21.32z"/>
</g>
</svg>
